<svg width="14" height="14" viewBox="0 0 14 14" fill="none" xmlns="http://www.w3.org/2000/svg">
<path d="M12.8652 6.49341C12.8248 6.24021 12.5868 6.06773 12.3336 6.10812C12.0804 6.14852 11.9079 6.38653 11.9483 6.63973C11.9487 6.6425 11.9492 6.64525 11.9497 6.64799C12.4224 9.43104 10.5496 12.0704 7.76654 12.5431C4.98349 13.0159 2.34416 11.1431 1.87139 8.36002C1.39862 5.57698 3.27149 2.93764 6.05451 2.46487C7.76602 2.17414 9.50811 2.77198 10.6804 4.0524L8.62383 4.73761C8.38054 4.81856 8.24896 5.08139 8.32989 5.32468C8.32992 5.32474 8.32994 5.32482 8.32997 5.32487C8.41092 5.56816 8.67375 5.69974 8.91704 5.61881C8.91712 5.61879 8.91718 5.61876 8.91723 5.61876L11.7027 4.69028C11.8923 4.62712 12.0203 4.44963 12.0203 4.24972V1.46425C12.0203 1.20785 11.8124 1 11.556 1C11.2996 1 11.0917 1.20785 11.0917 1.46425V3.16012C8.70092 0.88616 4.91935 0.980904 2.64539 3.37173C0.371426 5.76255 0.466142 9.54412 2.85699 11.8181C5.24784 14.0921 9.02938 13.9974 11.3034 11.6065C12.6001 10.2432 13.1787 8.34863 12.8652 6.49341Z" fill="#1F304A" stroke="#1F304A" stroke-width="0.5"/>
</svg>
