<svg width="12" height="12" viewBox="0 0 12 12" fill="none" xmlns="http://www.w3.org/2000/svg">
<path d="M8.5913 5.46975C8.53055 5.3355 8.39705 5.25 8.25005 5.25H6.75005V0.375C6.75005 0.168 6.58205 0 6.37505 0H4.87505C4.66805 0 4.50005 0.168 4.50005 0.375V5.25H3.00005C2.85305 5.25 2.71955 5.33625 2.6588 5.46975C2.5973 5.604 2.6213 5.76075 2.71805 5.87175L5.34305 8.87175C5.4143 8.9535 5.51705 9 5.62505 9C5.73305 9 5.8358 8.95275 5.90705 8.87175L8.53205 5.87175C8.62955 5.7615 8.65205 5.604 8.5913 5.46975Z" fill="#1F304A"/>
<path d="M9.75 8.25V10.5H1.5V8.25H0V11.25C0 11.6647 0.336 12 0.75 12H10.5C10.9147 12 11.25 11.6647 11.25 11.25V8.25H9.75Z" fill="#1F304A"/>
</svg>
