<svg width="14" height="24" viewBox="0 0 14 24" fill="none" xmlns="http://www.w3.org/2000/svg">
<path d="M9.49069 20.2953C9.48448 20.1464 8.67 19.4306 8.67 19.4306L9.47078 18.6124L9.52431 17.8103L8.65174 16.9088L8.65212 16.9067C8.63633 16.915 9.54209 16.0158 9.54209 16.0158L9.42801 15.3018C9.42801 15.3018 8.64634 14.4728 8.64591 14.4599L9.40852 13.5679L9.54545 11.9398C10.3591 11.6414 11.1254 11.1722 11.779 10.5187C14.1834 8.11424 14.1817 4.21398 11.7753 1.80751C9.36794 -0.600757 5.46768 -0.602416 3.06325 1.80201C0.658389 4.20687 0.659669 8.10751 3.06657 10.5144C3.73416 11.182 4.5192 11.6575 5.35317 11.9546L5.3233 21.8968L7.41655 24L9.53759 21.8856C9.53759 21.8856 9.52929 21.235 9.49069 20.2953ZM6.37386 5.54419C5.80337 4.9737 5.80626 4.04633 6.38007 3.47252C6.95388 2.89871 7.88164 2.89534 8.45218 3.46588C9.02271 4.03642 9.01982 4.96455 8.44596 5.53841C7.87211 6.11227 6.94435 6.11468 6.37386 5.54419Z" fill="#1F304A"/>
<path d="M8.8692 3.05047C8.06719 2.24846 6.7668 2.24846 5.96478 3.05047C5.16277 3.85249 5.16277 5.15287 5.96478 5.95489C6.76723 6.75733 8.06719 6.7569 8.8692 5.95489C9.67121 5.15287 9.67164 3.85291 8.8692 3.05047ZM6.79458 5.12509C6.45102 4.78153 6.45107 4.22389 6.79458 3.88037C7.13853 3.53642 7.69579 3.53685 8.03931 3.88037C8.38287 4.22393 8.38325 4.78115 8.03931 5.12509C7.69579 5.46861 7.13815 5.46865 6.79458 5.12509Z" fill="#525F71"/>
<path d="M7.00123 12.3006C6.25977 12.2496 5.52868 12.0637 4.84075 11.7467L4.92704 21.5147L7.00161 23.5892L7.00123 12.3006Z" fill="#525F71"/>
</svg>
