<svg width="15" height="20" viewBox="0 0 15 20" fill="none" xmlns="http://www.w3.org/2000/svg">
<path d="M7.50045 0C4.33457 0.00371054 1.76902 2.4522 1.76514 5.47372V8.84214C1.76514 9.07469 1.96267 9.26321 2.20633 9.26321H3.97105C4.2147 9.26321 4.41224 9.07469 4.41224 8.84214V5.47372C4.4122 3.8459 5.79488 2.52633 7.50045 2.52633C9.20603 2.52633 10.5887 3.8459 10.5887 5.47372V8.84214C10.5887 9.07469 10.7862 9.26321 11.0299 9.26321H12.7946C13.0382 9.26321 13.2358 9.07469 13.2358 8.84214V5.47372C13.2319 2.4522 10.6663 0.00371054 7.50045 0Z" fill="#525F71"/>
<path d="M2.20587 8.21039H12.7941C14.0124 8.21039 15 9.15294 15 10.3156V17.8946C15 19.0574 14.0124 19.9999 12.7941 19.9999H2.20587C0.987603 19.9999 0 19.0574 0 17.8947V10.3157C0 9.15294 0.987603 8.21039 2.20587 8.21039Z" fill="#1F304A"/>
<path d="M9.26499 13.5837C9.26884 12.7128 8.53127 12.0038 7.61757 12.0001C6.70387 11.9965 5.96004 12.6995 5.95619 13.5703C5.95352 14.1723 6.31066 14.7232 6.87668 14.9902L6.62123 16.6932C6.59564 16.8657 6.72158 17.0253 6.90252 17.0497C6.91785 17.0517 6.93333 17.0528 6.94881 17.0528H8.27235C8.45508 17.0545 8.60473 16.9148 8.60656 16.7406C8.60671 16.7245 8.60563 16.7085 8.60321 16.6926L8.34775 14.9896C8.90686 14.7229 9.26136 14.1795 9.26499 13.5837Z" fill="#525F71"/>
</svg>
