<svg width="17" height="25" viewBox="0 0 17 25" fill="none" xmlns="http://www.w3.org/2000/svg">
<path d="M13.2239 15.5409C13.0813 15.454 12.9923 15.2846 12.9923 15.1V14.6H10.9385C10.6962 14.6 10.6473 14.6 10.5 14.6V13.0998V11.5997C10.5 11.5997 10.6962 11.5997 10.9385 11.5997H12.9923V11.0996C12.9923 10.9149 13.0813 10.7456 13.2239 10.6587C13.3661 10.5722 13.5395 10.582 13.6741 10.6836L16.3048 12.6837C16.4268 12.7765 16.5 12.9327 16.5 13.0998C16.5 13.2667 16.4268 13.423 16.3048 13.5158L13.6741 15.516C13.5381 15.6194 13.3646 15.6269 13.2239 15.5409Z" fill="#525F71"/>
<path d="M12.0905 1.66564L12.0905 10.4937H8.57487C8.32189 10.4937 7.87175 10.4937 7.87175 10.4937V6.88437C7.87175 6.09672 7.43581 5.37969 6.70471 5L0.756348 0.99998L11.3873 0.962513C11.7812 0.962513 12.0905 1.27174 12.0905 1.66564Z" fill="#525F71"/>
<path d="M8.57471 15.7776H12.0903V21.5222C12.0903 21.9161 11.7811 22.2253 11.3872 22.2253H7.87158V15.7776C8.1266 15.7776 8.32173 15.7776 8.57471 15.7776Z" fill="#525F71"/>
<path d="M9.45013 5.2895L1.0125 1.07075C0.801708 0.972168 0.534374 0.972168 0.3375 1.09888C0.126709 1.23936 0 1.46436 0 1.70356V21.4846C0 21.7942 0.196875 22.0613 0.478271 22.1457L8.91576 24.9582C9.12289 25.0411 9.38802 24.9943 9.54842 24.8738C9.73138 24.7332 9.84388 24.5223 9.84388 24.2974V5.92231C9.84374 5.65512 9.6892 5.41591 9.45013 5.2895ZM7.03124 14.4535C7.03124 14.8471 6.72201 15.1567 6.32812 15.1567C5.93451 15.1567 5.62499 14.8471 5.62499 14.4535V11.6411C5.62499 11.2473 5.93451 10.9379 6.32812 10.9379C6.72201 10.9379 7.03124 11.2473 7.03124 11.6411V14.4535Z" fill="#1F304A"/>
<rect x="5.5" y="11" width="2" height="4" rx="1" stroke="#525F71"/>
</svg>
