<svg width="15" height="20" viewBox="0 0 15 20" fill="none" xmlns="http://www.w3.org/2000/svg">
<path d="M7.5 9.78131C9.69267 9.78131 11.4703 7.59171 11.4703 4.89068C11.4703 2.1896 10.8867 0 7.5 0C4.11329 0 3.52954 2.1896 3.52954 4.89068C3.52954 7.59171 5.30722 9.78131 7.5 9.78131Z" fill="#1F304A"/>
<path d="M7.5205 2.28571C9.71317 2.28571 9.86085 2.5 11.4908 4.89068C11.4908 2.1896 10.9072 0 7.5205 0C4.1338 0 3.55005 2.1896 3.55005 4.89068C4.93053 2.5 5.32772 2.28571 7.5205 2.28571Z" fill="#525F71"/>
<path d="M0.000791794 17.2488C0.00010608 17.0841 -0.000579634 17.2024 0.000791794 17.2488V17.2488Z" fill="white"/>
<path d="M14.999 17.3774C15.0012 17.3323 14.9998 17.0646 14.999 17.3774V17.3774Z" fill="white"/>
<path d="M14.9907 17.0512C14.9171 12.346 14.3112 11.0052 9.67426 10.1566C9.67426 10.1566 9.02154 11 7.50019 11C5.97883 11 5.326 10.1566 5.326 10.1566C0.739679 10.996 0.0968783 12.3168 0.0123585 16.8984C0.00542792 17.2725 0.00221619 17.2922 0.000976562 17.2487C0.0012583 17.3301 0.00159625 17.4806 0.00159625 17.7431C0.00159625 17.7431 1.10554 20 7.50019 20C13.8947 20 14.9988 17.7431 14.9988 17.7431C14.9988 17.5744 14.9989 17.4572 14.9991 17.3774C14.9978 17.4043 14.9953 17.3522 14.9907 17.0512Z" fill="#1F304A"/>
<path d="M14.987 17.0661C14.9135 12.3608 14.3075 11.0201 9.67059 10.1714C13.7202 12.0571 15.4669 18.9428 7.4939 20C13.8884 20 14.9951 17.7579 14.9951 17.7579C14.9951 17.5893 14.9952 17.472 14.9954 17.3922C14.9942 17.4191 14.9917 17.367 14.987 17.0661Z" fill="#525F71"/>
</svg>
