<svg width="1132" height="770" viewBox="0 0 1132 770" fill="none" xmlns="http://www.w3.org/2000/svg">
<g clip-path="url(#clip0)">
<rect width="1132" height="770" fill="white"/>
<path d="M436.767 173.107L787.919 160.057C787.919 160.057 806.783 156.215 805.84 173.107L808.161 214.142L817.883 429.25C817.883 429.25 818.464 439.762 815.707 441.792C812.95 443.822 806.057 445.417 806.057 445.417L624.387 466.515L550.166 476.012L432.414 491.092C432.414 491.092 420.806 493.992 419.355 478.985C417.904 463.977 414.494 418.085 414.494 418.085L398.024 196.742C398.024 196.742 393.671 172.6 414.929 174.05L436.767 173.107Z" stroke="#C1C5CC" stroke-width="3" stroke-miterlimit="10"/>
<path d="M549.876 475.65C549.078 485.002 552.125 495.95 552.125 495.95L578.679 529.517C578.679 529.517 579.913 536.985 598.051 535.535C616.189 534.085 641.582 529.227 641.582 529.227L674.23 524.152C674.23 524.152 689.321 520.527 674.23 512.335C659.139 504.142 634.109 485.655 634.109 485.655L629.03 479.855C629.03 479.855 620.106 471.662 624.46 466.297" stroke="#C1C5CC" stroke-width="3" stroke-miterlimit="10"/>
<path d="M816.795 405.542L417.033 451.507" stroke="#C1C5CC" stroke-width="3" stroke-miterlimit="10"/>
<path d="M428.641 491.31C428.641 491.31 414.929 490.367 413.478 475.36C412.027 460.352 408.617 414.46 408.617 414.46L392.148 193.117C392.148 193.117 387.795 168.975 409.052 170.425L793.143 157.012C793.143 157.012 801.051 156.215 804.244 165.277" stroke="#C1C5CC" stroke-width="3" stroke-miterlimit="10"/>
<path d="M490.892 285.05L505.372 314.304L516.06 283.444L519.896 283.2L522.071 317.255L519.194 317.439L518.247 302.61L517.51 287.391L506.75 318.232L504.528 318.374L489.987 289.264L491.179 304.242L492.131 319.165L489.254 319.348L487.08 285.293L490.892 285.05ZM548.465 299.18L532.536 300.195L533.423 314.089L551.738 312.921L551.893 315.353L530.702 316.705L528.527 282.649L549.601 281.305L549.758 283.761L531.561 284.922L532.381 297.763L548.309 296.747L548.465 299.18ZM569.793 299.98L559.899 300.611L560.804 314.785L557.904 314.97L555.729 280.914L566.793 280.209C570.426 279.977 573.32 280.677 575.476 282.309C577.631 283.941 578.809 286.339 579.012 289.505C579.151 291.688 578.635 293.654 577.463 295.404C576.29 297.154 574.649 298.418 572.538 299.194L581.976 313.13L581.996 313.434L578.932 313.629L569.793 299.98ZM559.742 298.155L568.56 297.593C570.977 297.438 572.875 296.629 574.253 295.163C575.631 293.697 576.251 291.873 576.111 289.69C575.958 287.288 575.075 285.474 573.462 284.246C571.849 283.018 569.663 282.492 566.903 282.668L558.787 283.185L559.742 298.155ZM611.818 300.869C611.657 304.481 610.546 307.307 608.485 309.349C606.439 311.389 603.607 312.525 599.989 312.756C597.463 312.917 595.185 312.428 593.155 311.289C591.141 310.15 589.53 308.46 588.322 306.22C587.114 303.964 586.406 301.347 586.201 298.37L585.918 293.949C585.725 290.924 586.084 288.208 586.995 285.802C587.906 283.395 589.311 281.497 591.211 280.108C593.125 278.702 595.377 277.916 597.965 277.751C601.614 277.518 604.554 278.325 606.786 280.171C609.032 282.001 610.438 284.643 611.003 288.099L608.102 288.284C607.016 282.544 603.689 279.852 598.122 280.207C595.035 280.404 592.644 281.715 590.952 284.14C589.275 286.564 588.566 289.811 588.826 293.881L589.092 298.045C589.343 301.974 590.432 305.052 592.359 307.277C594.301 309.502 596.793 310.517 599.834 310.323C602.843 310.131 605.066 309.269 606.503 307.737C607.938 306.19 608.743 303.962 608.918 301.054L611.818 300.869ZM644.728 309.433L641.827 309.618L640.785 293.292L621.324 294.533L622.367 310.859L619.49 311.042L617.315 276.987L620.192 276.803L621.169 292.1L640.629 290.859L639.653 275.562L642.553 275.377L644.728 309.433ZM671.602 298.137L656.141 299.123L653.242 308.89L650.224 309.082L660.937 274.205L663.674 274.03L678.737 307.264L675.743 307.455L671.602 298.137ZM656.873 296.61L670.532 295.739L662.518 277.627L656.873 296.61ZM709.12 305.326L706.243 305.51L684.805 277.615L686.666 306.758L683.766 306.943L681.591 272.888L684.491 272.703L705.955 300.62L704.092 271.453L706.946 271.271L709.12 305.326ZM738.164 271.746L726.493 272.49L728.511 304.09L725.634 304.273L723.616 272.673L711.968 273.416L711.811 270.96L738.007 269.29L738.164 271.746ZM580.511 346.08L580.99 353.579L576.604 353.859L575.245 332.574L583.548 332.044C585.147 331.943 586.569 332.145 587.814 332.653C589.07 333.16 590.059 333.934 590.781 334.974C591.502 336.004 591.907 337.207 591.995 338.581C592.128 340.666 591.517 342.359 590.161 343.659C588.815 344.948 586.88 345.674 584.355 345.835L580.511 346.08ZM580.284 342.527L584.202 342.278C585.361 342.204 586.226 341.874 586.795 341.29C587.375 340.705 587.632 339.906 587.567 338.892C587.5 337.85 587.14 337.026 586.485 336.422C585.83 335.818 584.96 335.541 583.877 335.59L579.857 335.847L580.284 342.527ZM594.48 344.631C594.38 343.062 594.593 341.644 595.118 340.378C595.644 339.111 596.451 338.106 597.539 337.361C598.636 336.616 599.935 336.195 601.436 336.1C603.57 335.964 605.352 336.506 606.78 337.726C608.218 338.945 609.086 340.671 609.386 342.903L609.484 343.982C609.639 346.409 609.086 348.401 607.825 349.959C606.564 351.508 604.793 352.355 602.512 352.5C600.232 352.645 598.363 352.031 596.905 350.656C595.457 349.28 594.653 347.336 594.492 344.821L594.48 344.631ZM598.724 344.669C598.82 346.169 599.176 347.301 599.793 348.065C600.408 348.818 601.242 349.161 602.295 349.094C603.318 349.029 604.093 348.588 604.618 347.771C605.142 346.945 605.35 345.67 605.239 343.945C605.145 342.473 604.785 341.351 604.158 340.579C603.532 339.807 602.697 339.454 601.654 339.521C600.621 339.586 599.848 340.042 599.334 340.887C598.82 341.722 598.617 342.983 598.724 344.669ZM620.712 339.142C620.132 339.1 619.623 339.094 619.184 339.122C617.586 339.224 616.573 339.831 616.145 340.945L616.806 351.295L612.581 351.564L611.571 335.747L615.562 335.492L615.799 337.371C616.554 335.865 617.682 335.064 619.183 334.968C619.651 334.938 620.093 334.973 620.511 335.074L620.712 339.142ZM628.046 330.792L628.295 334.68L630.999 334.508L631.197 337.607L628.492 337.78L628.997 345.674C629.034 346.258 629.173 346.67 629.413 346.909C629.653 347.148 630.09 347.248 630.724 347.207C631.192 347.178 631.604 347.117 631.96 347.026L632.164 350.227C631.352 350.534 630.507 350.715 629.63 350.771C626.668 350.96 625.061 349.56 624.812 346.572L624.268 338.049L621.958 338.196L621.76 335.097L624.07 334.95L623.821 331.061L628.046 330.792ZM643.529 349.591C643.309 349.223 643.138 348.759 643.014 348.2C642.064 349.405 640.77 350.06 639.132 350.165C637.583 350.263 636.268 349.897 635.187 349.066C634.116 348.234 633.537 347.136 633.45 345.771C633.343 344.095 633.88 342.769 635.06 341.793C636.251 340.817 638.02 340.249 640.368 340.09L642.312 339.966L642.254 339.06C642.208 338.329 641.98 337.756 641.572 337.342C641.174 336.927 640.57 336.745 639.761 336.797C639.05 336.842 638.5 337.048 638.113 337.416C637.735 337.782 637.565 338.263 637.603 338.857L633.378 339.127C633.32 338.21 633.548 337.345 634.064 336.529C634.579 335.713 635.339 335.053 636.344 334.549C637.349 334.034 638.494 333.736 639.781 333.654C641.73 333.53 643.306 333.924 644.509 334.835C645.721 335.736 646.384 337.074 646.497 338.848L646.935 345.704C647.041 347.204 647.323 348.326 647.781 349.07L647.797 349.318L643.529 349.591ZM639.847 346.875C640.471 346.835 641.037 346.662 641.546 346.356C642.054 346.04 642.42 345.64 642.644 345.156L642.47 342.436L640.891 342.537C638.776 342.672 637.697 343.475 637.654 344.945L637.655 345.195C637.689 345.721 637.902 346.143 638.294 346.46C638.686 346.778 639.204 346.916 639.847 346.875ZM654.873 348.867L650.633 349.138L649.199 326.683L653.439 326.413L654.873 348.867Z" fill="#38506D" fill-opacity="0.36"/>
<path d="M549.709 494.068L752.928 647.094L879.069 592.228L669.076 460.8L549.709 494.068Z" fill="white"/>
<path d="M559.01 463.187L564.993 460.619H566.275L570.548 470.462L571.83 482.018V493.574L546.618 509.409H515.423L510.723 507.269L505.595 494.858L495.766 493.574V487.582L501.749 485.014L520.978 476.026L559.01 463.187Z" fill="#FCFCFC"/>
<path d="M570.121 468.322L571.83 485.87L579.094 483.972L648.321 464.471V463.187V460.191C648.89 458.479 648.919 452.829 644.475 443.927C640.031 435.025 631.513 432.514 627.809 432.372L615.844 433.656L589.35 439.647L560.719 445.639L552.173 448.635L560.719 451.631L570.121 468.322Z" fill="#FCFCFC"/>
<path d="M548.854 493.212L752.073 646.238L878.214 591.372L668.221 459.944L548.854 493.212Z" stroke="#C1C5CC" stroke-width="3" stroke-miterlimit="10"/>
<path d="M878.214 602.655V604.35L868.198 620.089L854.408 626.384L743.848 677.715L727.397 680.379L724.977 679.168L630.626 603.624C630.626 603.624 628.207 595.73 618.529 586.336C608.852 576.99 593.514 567.595 593.514 567.595L540.29 565.319L527.226 563.382L512.856 543.382L501.921 514.52V512.728L541.452 511.76L546.822 503.866L547.838 493.019L546.822 502.801C615.626 554.859 684.479 606.917 753.283 658.975C794.943 640.185 836.554 621.445 878.214 602.655ZM878.214 602.655V591.372" stroke="#C1C5CC" stroke-width="3" stroke-miterlimit="10"/>
<path d="M507.872 494.665H497.227C497.227 494.665 495.631 493.358 495.776 486.917L536.758 485.319L547.79 493.019" stroke="#C1C5CC" stroke-width="3" stroke-miterlimit="10"/>
<path d="M511.114 509.193L507.001 494.665L534.097 493.697L541.742 498.636L541.258 503.527L539.323 508.273L500.082 509.532L502.017 513.406" stroke="#C1C5CC" stroke-width="3" stroke-miterlimit="10"/>
<path d="M595.788 569.048L596.756 556.312L619.642 574.229V584.883V587.449" stroke="#C1C5CC" stroke-width="3" stroke-miterlimit="10"/>
<path d="M495.777 486.917L529.502 472.631L565.452 459.653C565.452 459.653 562.646 449.387 545.469 448.903L601.838 435.828L609.579 434.375C609.579 434.375 632.95 429.145 639.094 435.586C645.239 442.026 645.481 443.092 645.481 443.092C645.481 443.092 649.11 448.903 649.449 457.232C649.788 465.561 649.449 465.222 649.449 465.222" stroke="#C1C5CC" stroke-width="3" stroke-miterlimit="10"/>
<path d="M665.463 459.944C665.463 459.944 664.592 455.973 649.061 453.503" stroke="#C1C5CC" stroke-width="3" stroke-miterlimit="10"/>
<path d="M571.45 486.917C571.45 486.917 574.692 476.36 565.451 459.653" stroke="#C1C5CC" stroke-width="3" stroke-miterlimit="10"/>
<path d="M526.355 473.987H546.58L568.741 464.641" stroke="#C1C5CC" stroke-width="3" stroke-miterlimit="10"/>
<path d="M752.073 646.238L753.283 658.974C756.186 662.267 743.848 677.764 743.848 677.764" stroke="#C1C5CC" stroke-width="3" stroke-miterlimit="10"/>
<path d="M566.902 501.832L675.382 471.566L861.763 587.449L748.783 637.183L566.902 501.832Z" stroke="#C1C5CC" stroke-width="3" stroke-miterlimit="10"/>
<path d="M725.123 619.604L837.135 572.146" stroke="#C1C5CC" stroke-width="3" stroke-miterlimit="10"/>
<path d="M758.896 610.403L763.589 614.083H756.622L759.186 610.306" stroke="#C1C5CC" stroke-width="2" stroke-miterlimit="10"/>
<path d="M818.313 585.803L822.28 589.29L826.684 587.353L822.135 584.544L818.216 586.239" stroke="#C1C5CC" stroke-width="2" stroke-miterlimit="10"/>
<path d="M681.818 475.537L574.499 507.498" stroke="#C1C5CC" stroke-width="3" stroke-miterlimit="10"/>
<path d="M717.091 587.353C725.107 587.353 731.606 583.515 731.606 578.781C731.606 574.048 725.107 570.21 717.091 570.21C709.074 570.21 702.575 574.048 702.575 578.781C702.575 583.515 709.074 587.353 717.091 587.353Z" stroke="#C1C5CC" stroke-width="3" stroke-miterlimit="10"/>
<path d="M791.749 602.655C794.074 602.655 795.959 601.354 795.959 599.75C795.959 598.145 794.074 596.844 791.749 596.844C789.424 596.844 787.54 598.145 787.54 599.75C787.54 601.354 789.424 602.655 791.749 602.655Z" stroke="#C1C5CC" stroke-width="2" stroke-miterlimit="10"/>
<path d="M667.399 551.517C674.427 551.517 680.124 548.07 680.124 543.817C680.124 539.565 674.427 536.118 667.399 536.118C660.371 536.118 654.673 539.565 654.673 543.817C654.673 548.07 660.371 551.517 667.399 551.517Z" stroke="#C1C5CC" stroke-width="3" stroke-miterlimit="10"/>
<path d="M707.317 523.139L722.316 518.297L736.009 526.868L721.639 532.098L707.317 523.139Z" stroke="#C1C5CC" stroke-width="3" stroke-miterlimit="10"/>
<path d="M606.578 509.919L622.787 504.496L635.706 513.309L619.739 518.878L606.578 509.919Z" stroke="#C1C5CC" stroke-width="3" stroke-miterlimit="10"/>
<path d="M676.882 501.687C683.269 501.687 688.446 498.868 688.446 495.392C688.446 491.915 683.269 489.096 676.882 489.096C670.496 489.096 665.318 491.915 665.318 495.392C665.318 498.868 670.496 501.687 676.882 501.687Z" stroke="#C1C5CC" stroke-width="3" stroke-miterlimit="10"/>
<path d="M757.589 555.924L772.637 550.355L788.507 560.04L773.072 566.336L757.589 555.924Z" stroke="#C1C5CC" stroke-width="3" stroke-miterlimit="10"/>
<path d="M590.127 551.517C590.849 551.517 591.434 550.325 591.434 548.854C591.434 547.383 590.849 546.19 590.127 546.19C589.406 546.19 588.821 547.383 588.821 548.854C588.821 550.325 589.406 551.517 590.127 551.517Z" stroke="#C1C5CC" stroke-width="2" stroke-miterlimit="10"/>
<path d="M623.368 524.544L645.141 517.086" stroke="#C1C5CC" stroke-width="6" stroke-miterlimit="10" stroke-linecap="round"/>
<path d="M676.882 509.145L701.946 499.992" stroke="#C1C5CC" stroke-width="6" stroke-miterlimit="10" stroke-linecap="round" stroke-linejoin="round"/>
<path d="M671.124 556.311L688.446 549.726" stroke="#C1C5CC" stroke-width="6" stroke-miterlimit="10" stroke-linecap="round" stroke-linejoin="round"/>
<path d="M721.639 539.362L748.057 529.387" stroke="#C1C5CC" stroke-width="6" stroke-miterlimit="10" stroke-linecap="round"/>
<path d="M722.703 593.309L739.977 585.851" stroke="#C1C5CC" stroke-width="6" stroke-miterlimit="10" stroke-linecap="round"/>
<path d="M775.443 572.146L798.185 563.091" stroke="#C1C5CC" stroke-width="6" stroke-miterlimit="10" stroke-linecap="round"/>
<path d="M536.758 485.319C536.758 485.319 530.081 479.847 565.451 466.045" stroke="#C1C5CC" stroke-width="3" stroke-miterlimit="10" stroke-linecap="round"/>
<path d="M575.37 461.396C576.87 461.396 578.37 461.445 579.773 461.251C581.224 461.057 582.579 460.67 583.16 460.089C583.305 459.944 583.402 459.798 583.644 459.75C584.369 459.508 585.24 460.041 586.111 460.089C587.224 460.186 587.998 459.605 589.014 459.363C590.611 458.975 593.127 459.363 594.095 458.685" stroke="#C1C5CC" stroke-width="2" stroke-miterlimit="10"/>
<path d="M577.305 466.529C579.047 467.256 581.128 466.675 582.337 465.222C583.015 464.399 583.45 463.333 584.369 462.897C585.144 462.51 586.063 462.704 586.885 462.897C588.337 463.236 590.03 463.575 591.24 462.607C591.53 462.365 591.772 462.074 592.111 461.88C592.885 461.445 593.805 461.687 594.675 461.735C596.272 461.784 597.772 460.96 599.224 460.186" stroke="#C1C5CC" stroke-width="2" stroke-miterlimit="10"/>
<path d="M615.868 452.099C617.707 451.324 619.546 450.597 621.384 449.823C621.82 449.629 622.255 449.484 622.691 449.484C623.078 449.484 623.465 449.677 623.852 449.774C625.013 450.065 626.32 449.823 627.239 449.096C627.723 448.709 628.11 448.176 628.69 447.886C629.561 447.45 630.674 447.643 631.642 447.498C634.255 447.111 635.997 444.447 638.609 444.399" stroke="#C1C5CC" stroke-miterlimit="10"/>
<path d="M611.804 457.038C615.626 456.118 619.449 455.246 623.271 454.326C623.803 454.181 624.287 454.084 624.82 453.939C627.142 453.406 629.416 452.825 631.739 452.292C632.077 452.195 632.464 452.099 632.658 451.711C632.852 451.372 632.706 450.888 632.803 450.5C632.948 449.387 634.158 449.096 635.077 448.999C637.303 448.757 639.529 448.563 641.754 448.321" stroke="#C1C5CC" stroke-miterlimit="10"/>
<path d="M579.724 472.631C579.531 471.856 580.208 471.13 580.982 470.985C581.757 470.84 582.482 471.13 583.208 471.324C585.24 471.856 587.466 471.614 589.353 470.694C590.514 471.033 591.772 471.421 592.982 471.324C594.192 471.227 595.498 470.597 596.03 469.435C596.224 469.048 596.321 468.612 596.659 468.418C597.095 468.128 597.675 468.37 598.159 468.418C599.853 468.612 601.062 466.53 602.756 466.239C603.578 466.094 604.401 466.384 605.223 466.53C606.046 466.675 607.014 466.578 607.498 465.9C607.885 465.416 607.981 464.593 608.562 464.399" stroke="#C1C5CC" stroke-width="2" stroke-miterlimit="10"/>
<path d="M643.4 458.394C642.432 458.878 641.367 459.363 640.303 459.314C639.529 459.266 638.706 458.975 638.029 459.363C637.787 459.508 637.593 459.75 637.303 459.895C636.529 460.38 635.464 459.992 634.593 460.186C634.448 460.234 634.303 460.283 634.206 460.428C634.158 460.573 634.158 460.718 634.11 460.815C633.964 461.251 633.384 461.251 632.948 461.203" stroke="#C1C5CC" stroke-miterlimit="10"/>
<path d="M624.868 458.927C626.078 458.491 627.239 458.104 628.448 457.668C628.69 457.571 628.932 457.522 629.174 457.522C629.513 457.522 629.755 457.668 630.045 457.765C630.771 457.958 631.545 457.813 632.223 457.668C634.739 457.135 637.303 456.602 639.48 455.489C640.545 454.956 641.609 454.326 642.819 454.375" stroke="#C1C5CC" stroke-miterlimit="10"/>
<path d="M570.87 454.859C571.983 454.81 573.096 454.568 574.112 454.084C574.789 453.745 575.612 453.358 576.241 453.842C577.015 453.164 578.079 452.922 579.095 452.873C580.111 452.825 581.128 452.922 582.144 452.922C582.579 452.922 583.063 452.873 583.45 452.631C583.934 452.341 584.176 451.76 584.708 451.566" stroke="#C1C5CC" stroke-width="2" stroke-miterlimit="10"/>
<path d="M569.128 452.244C570.241 452.147 571.402 451.857 572.418 451.324C572.805 451.13 573.192 450.888 573.628 450.743C574.16 450.549 574.692 450.452 575.225 450.404C577.402 450.065 579.531 449.532 581.563 448.806" stroke="#C1C5CC" stroke-width="2" stroke-miterlimit="10"/>
<path d="M1080.05 405.947L996.724 468.695L945 446.197L1031.11 392.306L1080.05 405.947Z" stroke="#D1D4D9" stroke-width="2" stroke-miterlimit="10"/>
<path d="M945 450.824V451.519L949.107 457.973L954.761 460.554L1000.1 481.602L1006.84 482.694L1007.83 482.198L1046.52 451.221C1046.52 451.221 1047.51 447.985 1051.48 444.132C1055.45 440.3 1061.74 436.448 1061.74 436.448L1083.56 435.514L1088.92 434.72L1094.81 426.519L1099.3 414.685V413.95L1083.09 413.553L1080.89 410.316L1080.47 405.868L1080.89 409.879C1052.67 431.225 1024.44 452.572 996.228 473.918C979.145 466.213 962.082 458.529 945 450.824ZM945 450.824V446.197" stroke="#D1D4D9" stroke-width="2" stroke-miterlimit="10"/>
<path d="M1096.86 406.543H1101.22C1101.22 406.543 1101.88 406.007 1101.82 403.366L1085.01 402.711L1080.49 405.868" stroke="#D1D4D9" stroke-width="2" stroke-miterlimit="10"/>
<path d="M1095.53 412.5L1097.21 406.543L1086.1 406.146L1082.97 408.171L1083.17 410.177L1083.96 412.123L1100.05 412.639L1099.26 414.228" stroke="#D1D4D9" stroke-width="2" stroke-miterlimit="10"/>
<path d="M1060.81 437.044L1060.41 431.821L1051.03 439.168V443.537V444.589" stroke="#D1D4D9" stroke-width="2" stroke-miterlimit="10"/>
<path d="M1101.82 403.366L1087.99 397.508L1073.25 392.187C1073.25 392.187 1074.4 387.977 1081.44 387.779L1058.33 382.417L1055.15 381.821C1055.15 381.821 1045.57 379.677 1043.05 382.318C1040.53 384.959 1040.43 385.396 1040.43 385.396C1040.43 385.396 1038.94 387.779 1038.8 391.194C1038.66 394.609 1038.8 394.47 1038.8 394.47" stroke="#D1D4D9" stroke-width="2" stroke-miterlimit="10"/>
<path d="M1032.24 392.306C1032.24 392.306 1032.59 390.678 1038.96 389.665" stroke="#D1D4D9" stroke-width="2" stroke-miterlimit="10"/>
<path d="M1070.79 403.366C1070.79 403.366 1069.46 399.037 1073.25 392.187" stroke="#D1D4D9" stroke-width="2" stroke-miterlimit="10"/>
<path d="M1089.28 398.064H1080.99L1071.9 394.232" stroke="#D1D4D9" stroke-width="2" stroke-miterlimit="10"/>
<path d="M996.724 468.695L996.228 473.918C995.037 475.268 1000.1 481.622 1000.1 481.622" stroke="#D1D4D9" stroke-width="2" stroke-miterlimit="10"/>
<path d="M1072.65 409.482L1028.17 397.072L951.746 444.589L998.073 464.982L1072.65 409.482Z" stroke="#D1D4D9" stroke-width="2" stroke-miterlimit="10"/>
<path d="M1007.77 457.774L961.844 438.314" stroke="#D1D4D9" stroke-width="2" stroke-miterlimit="10"/>
<path d="M993.926 454.001L992.002 455.51H994.859L993.807 453.961" stroke="#D1D4D9" stroke-width="2" stroke-miterlimit="10"/>
<path d="M969.562 443.914L967.935 445.343L966.13 444.549L967.995 443.397L969.602 444.092" stroke="#D1D4D9" stroke-width="2" stroke-miterlimit="10"/>
<path d="M1025.53 398.7L1069.54 411.805" stroke="#D1D4D9" stroke-width="2" stroke-miterlimit="10"/>
<path d="M1011.07 444.549C1007.78 444.549 1005.12 442.976 1005.12 441.035C1005.12 439.094 1007.78 437.52 1011.07 437.52C1014.36 437.52 1017.02 439.094 1017.02 441.035C1017.02 442.976 1014.36 444.549 1011.07 444.549Z" stroke="#D1D4D9" stroke-width="2" stroke-miterlimit="10"/>
<path d="M980.455 450.824C979.501 450.824 978.728 450.291 978.728 449.633C978.728 448.975 979.501 448.441 980.455 448.441C981.408 448.441 982.181 448.975 982.181 449.633C982.181 450.291 981.408 450.824 980.455 450.824Z" stroke="#D1D4D9" stroke-width="2" stroke-miterlimit="10"/>
<path d="M1031.44 429.855C1028.56 429.855 1026.23 428.441 1026.23 426.698C1026.23 424.954 1028.56 423.541 1031.44 423.541C1034.33 423.541 1036.66 424.954 1036.66 426.698C1036.66 428.441 1034.33 429.855 1031.44 429.855Z" stroke="#D1D4D9" stroke-width="2" stroke-miterlimit="10"/>
<path d="M1015.08 418.219L1008.93 416.233L1003.31 419.748L1009.2 421.893L1015.08 418.219Z" stroke="#D1D4D9" stroke-width="2" stroke-miterlimit="10"/>
<path d="M1056.38 412.798L1049.74 410.574L1044.44 414.188L1050.99 416.472L1056.38 412.798Z" stroke="#D1D4D9" stroke-width="2" stroke-miterlimit="10"/>
<path d="M1027.56 409.423C1024.94 409.423 1022.81 408.267 1022.81 406.841C1022.81 405.415 1024.94 404.26 1027.56 404.26C1030.17 404.26 1032.3 405.415 1032.3 406.841C1032.3 408.267 1030.17 409.423 1027.56 409.423Z" stroke="#D1D4D9" stroke-width="2" stroke-miterlimit="10"/>
<path d="M994.462 431.662L988.291 429.379L981.784 433.35L988.113 435.932L994.462 431.662Z" stroke="#D1D4D9" stroke-width="2" stroke-miterlimit="10"/>
<path d="M1063.13 429.855C1062.83 429.855 1062.59 429.366 1062.59 428.763C1062.59 428.16 1062.83 427.671 1063.13 427.671C1063.42 427.671 1063.66 428.16 1063.66 428.763C1063.66 429.366 1063.42 429.855 1063.13 429.855Z" stroke="#D1D4D9" stroke-width="2" stroke-miterlimit="10"/>
<path d="M1049.5 418.795L1040.57 415.737" stroke="#D1D4D9" stroke-width="2" stroke-miterlimit="10" stroke-linecap="round"/>
<path d="M1027.56 412.48L1017.28 408.728" stroke="#D1D4D9" stroke-width="2" stroke-miterlimit="10" stroke-linecap="round" stroke-linejoin="round"/>
<path d="M1029.92 431.821L1022.81 429.121" stroke="#D1D4D9" stroke-width="2" stroke-miterlimit="10" stroke-linecap="round" stroke-linejoin="round"/>
<path d="M1009.2 424.871L998.37 420.781" stroke="#D1D4D9" stroke-width="2" stroke-miterlimit="10" stroke-linecap="round"/>
<path d="M1008.77 446.992L1001.68 443.934" stroke="#D1D4D9" stroke-width="2" stroke-miterlimit="10" stroke-linecap="round"/>
<path d="M987.141 438.314L977.816 434.601" stroke="#D1D4D9" stroke-width="2" stroke-miterlimit="10" stroke-linecap="round"/>
<path d="M1085.01 402.711C1085.01 402.711 1087.75 400.467 1073.25 394.808" stroke="#D1D4D9" stroke-width="2" stroke-miterlimit="10" stroke-linecap="round"/>
<path d="M1069.18 392.902C1068.57 392.902 1067.95 392.921 1067.37 392.842C1066.78 392.763 1066.22 392.604 1065.99 392.365C1065.93 392.306 1065.89 392.246 1065.79 392.226C1065.49 392.127 1065.13 392.346 1064.78 392.365C1064.32 392.405 1064 392.167 1063.59 392.068C1062.93 391.909 1061.9 392.068 1061.5 391.79" stroke="#D1D4D9" stroke-width="2" stroke-miterlimit="10"/>
<path d="M1068.39 395.007C1067.67 395.304 1066.82 395.066 1066.32 394.47C1066.05 394.133 1065.87 393.696 1065.49 393.517C1065.17 393.358 1064.8 393.438 1064.46 393.517C1063.86 393.656 1063.17 393.795 1062.67 393.398C1062.55 393.299 1062.45 393.18 1062.32 393.1C1062 392.922 1061.62 393.021 1061.26 393.041C1060.61 393.061 1059.99 392.723 1059.4 392.405" stroke="#D1D4D9" stroke-width="2" stroke-miterlimit="10"/>
<path d="M1052.57 389.089C1051.82 388.771 1051.07 388.473 1050.31 388.156C1050.13 388.076 1049.95 388.017 1049.78 388.017C1049.62 388.017 1049.46 388.096 1049.3 388.136C1048.82 388.255 1048.29 388.156 1047.91 387.858C1047.71 387.699 1047.55 387.48 1047.32 387.361C1046.96 387.183 1046.5 387.262 1046.11 387.202C1045.03 387.044 1044.32 385.951 1043.25 385.932" stroke="#D1D4D9" stroke-width="2" stroke-miterlimit="10"/>
<path d="M1054.24 391.114C1052.67 390.737 1051.11 390.38 1049.54 390.002C1049.32 389.943 1049.12 389.903 1048.9 389.843C1047.95 389.625 1047.02 389.387 1046.07 389.168C1045.93 389.129 1045.77 389.089 1045.69 388.93C1045.61 388.791 1045.67 388.592 1045.63 388.434C1045.57 387.977 1045.07 387.858 1044.7 387.818C1043.78 387.719 1042.87 387.639 1041.96 387.54" stroke="#D1D4D9" stroke-width="2" stroke-miterlimit="10"/>
<path d="M1067.39 397.508C1067.47 397.191 1067.2 396.893 1066.88 396.833C1066.56 396.774 1066.26 396.893 1065.97 396.972C1065.13 397.191 1064.22 397.091 1063.45 396.714C1062.97 396.853 1062.45 397.012 1061.96 396.972C1061.46 396.933 1060.93 396.674 1060.71 396.198C1060.63 396.039 1060.59 395.86 1060.45 395.781C1060.27 395.662 1060.03 395.761 1059.84 395.781C1059.14 395.86 1058.64 395.007 1057.95 394.887C1057.61 394.828 1057.28 394.947 1056.94 395.007C1056.6 395.066 1056.2 395.026 1056.01 394.748C1055.85 394.55 1055.81 394.212 1055.57 394.133" stroke="#D1D4D9" stroke-width="2" stroke-miterlimit="10"/>
<path d="M1041.28 391.67C1041.68 391.869 1042.12 392.068 1042.55 392.048C1042.87 392.028 1043.21 391.909 1043.49 392.068C1043.59 392.127 1043.67 392.226 1043.78 392.286C1044.1 392.485 1044.54 392.326 1044.9 392.405C1044.96 392.425 1045.01 392.445 1045.05 392.504C1045.07 392.564 1045.07 392.624 1045.09 392.663C1045.15 392.842 1045.39 392.842 1045.57 392.822" stroke="#D1D4D9" stroke-width="2" stroke-miterlimit="10"/>
<path d="M1048.88 391.889C1048.39 391.71 1047.91 391.551 1047.42 391.372C1047.32 391.333 1047.22 391.313 1047.12 391.313C1046.98 391.313 1046.88 391.372 1046.76 391.412C1046.46 391.491 1046.15 391.432 1045.87 391.372C1044.84 391.154 1043.78 390.935 1042.89 390.479C1042.46 390.26 1042.02 390.002 1041.52 390.022" stroke="#D1D4D9" stroke-width="2" stroke-miterlimit="10"/>
<path d="M1071.03 390.221C1070.57 390.201 1070.11 390.102 1069.7 389.903C1069.42 389.764 1069.08 389.605 1068.82 389.804C1068.51 389.526 1068.07 389.427 1067.65 389.407C1067.24 389.387 1066.82 389.427 1066.4 389.427C1066.22 389.427 1066.03 389.407 1065.87 389.307C1065.67 389.188 1065.57 388.95 1065.35 388.871" stroke="#D1D4D9" stroke-width="2" stroke-miterlimit="10"/>
<path d="M1071.74 389.149C1071.28 389.109 1070.81 388.99 1070.39 388.771C1070.23 388.692 1070.07 388.593 1069.89 388.533C1069.68 388.454 1069.46 388.414 1069.24 388.394C1068.35 388.255 1067.47 388.037 1066.64 387.739" stroke="#D1D4D9" stroke-width="2" stroke-miterlimit="10"/>
<g clip-path="url(#clip1)">
<path d="M1021.87 473.532L1195.72 459.357L1199.14 583.879L1093.16 562.48L1048.42 546.404L1033.35 545.028L1015.67 544.486L1014.29 544.07C1014.29 544.07 1011.21 544.611 1010.26 544.195C1009.3 543.778 1008.05 544.195 1008.05 544.195C1003.06 547.113 997.52 547.238 997.52 547.238H994.607L993.65 548.072C979.624 557.827 970.884 552.949 970.884 552.949L967.679 552.407C939.378 563.914 918.443 557.535 918.443 557.535L914.573 556.576C913.324 558.953 911.368 558.953 911.368 558.953C911.368 558.953 909.994 558.953 909.578 559.369C909.162 559.786 907.372 559.661 907.372 559.661L894.595 556.618C893.472 555.909 891.807 555.784 891.807 555.784L890.433 555.909C887.686 557.327 879.071 554.117 879.071 554.117L870.622 551.907C870.622 551.907 869.665 550.656 863.547 555.117C857.429 559.536 851.061 561.496 851.061 561.496C851.061 561.496 847.69 561.496 836.203 563.997C824.716 566.498 817.766 562.746 817.766 562.746L813.604 558.702C813.604 558.702 809.026 553.283 810.149 545.237C811.273 537.191 819.306 533.439 819.306 533.439L825.007 529.812L825.174 529.103C822.927 524.934 828.212 514.929 828.212 514.929L832.374 504.798L813.77 507.592L807.236 510.218L796.831 517.305C796.831 517.305 788.382 522.141 771.318 530.354C754.254 538.525 743.849 532.563 743.849 532.563C743.849 532.563 739.396 528.561 739.396 523.684C739.396 518.848 747.304 515.638 747.304 515.638L754.254 511.469C758.416 508.55 765.908 505.215 765.908 505.215L779.226 496.461L790.463 487.289L802.533 477.7L812.938 473.532L827.088 466.028L839.158 462.276C839.158 462.276 852.06 456.022 861.216 447.267C870.373 438.513 890.766 447.267 890.766 447.267L933.218 459.357C940.71 463.109 991.902 473.532 991.902 473.532H1021.87Z" fill="white"/>
<path d="M848.023 528.019C848.023 528.019 855.681 545.07 854.308 547.613" stroke="#B1B1B1" stroke-width="3" stroke-miterlimit="10" stroke-linecap="round"/>
<path d="M845.318 476.241C845.318 476.241 848.647 485.746 847.94 487.706C847.232 489.665 846.691 492.625 846.691 492.625L843.154 501.088" stroke="#B1B1B1" stroke-width="3" stroke-miterlimit="10" stroke-linecap="round"/>
<path d="M1021.87 473.532L1091.88 466.028L1194.01 459.357L1291.5 454L1305 507.592L1317.5 572.5H1215L1115.5 560L1048.42 546.404L1033.35 545.028L1015.67 544.486L1014.29 544.07C1014.29 544.07 1011.21 544.611 1010.26 544.195C1009.3 543.778 1008.05 544.195 1008.05 544.195C1003.06 547.113 997.52 547.238 997.52 547.238H994.607L993.65 548.072C979.624 557.827 970.884 552.949 970.884 552.949L967.679 552.407C939.378 563.914 918.443 557.535 918.443 557.535L914.573 556.576C913.324 558.953 911.368 558.953 911.368 558.953C911.368 558.953 909.994 558.953 909.578 559.369C909.162 559.786 907.372 559.661 907.372 559.661L894.595 556.618C893.472 555.909 891.807 555.784 891.807 555.784L890.433 555.909C887.686 557.327 879.071 554.117 879.071 554.117L870.622 551.907C870.622 551.907 869.665 550.656 863.547 555.117C857.429 559.536 851.061 561.496 851.061 561.496C851.061 561.496 847.69 561.496 836.203 563.997C824.716 566.498 817.766 562.746 817.766 562.746L813.604 558.702C813.604 558.702 809.026 553.283 810.149 545.237C811.273 537.191 819.306 533.439 819.306 533.439L825.007 529.812L825.174 529.103C822.927 524.934 828.212 514.929 828.212 514.929L832.374 504.798L813.77 507.592L807.236 510.218L796.831 517.305C796.831 517.305 788.382 522.141 771.318 530.354C754.254 538.525 743.849 532.563 743.849 532.563C743.849 532.563 739.396 528.561 739.396 523.684C739.396 518.848 747.304 515.638 747.304 515.638L754.254 511.469C758.416 508.55 765.908 505.215 765.908 505.215L779.226 496.461L790.463 487.289L802.533 477.7L812.938 473.532L827.088 466.028L839.158 462.276C839.158 462.276 852.06 456.022 861.216 447.267C870.373 438.513 890.766 447.267 890.766 447.267L933.218 459.357C940.71 463.109 991.902 473.532 991.902 473.532H1021.87Z" stroke="#B1B1B1" stroke-width="3" stroke-miterlimit="10"/>
<path d="M831.084 505.007L847.357 500.421C847.357 500.421 861.008 511.26 870.373 511.26C879.737 511.26 880.153 505.84 880.153 505.84" stroke="#B1B1B1" stroke-width="3" stroke-miterlimit="10"/>
<path d="M805.654 487.706C805.654 487.706 815.934 506.716 813.77 507.591" stroke="#B1B1B1" stroke-width="3" stroke-miterlimit="10" stroke-linecap="round"/>
<path d="M773.399 505.007C773.399 505.007 779.934 524.809 784.262 523.975" stroke="#B1B1B1" stroke-width="3" stroke-miterlimit="10" stroke-linecap="round"/>
<path d="M825.132 529.103C825.132 529.103 845.193 520.223 851.644 520.223C858.095 520.223 878.697 515.012 878.697 515.012L893.472 507.592C893.472 507.592 899.714 499.587 905.749 498.754C911.784 497.92 914.906 497.628 914.906 497.628" stroke="#B1B1B1" stroke-width="3" stroke-miterlimit="10"/>
<path d="M874.743 468.737C874.743 468.737 877.656 477.909 876.199 481.661C874.743 485.413 879.113 494.793 879.113 494.793L885.356 511.26" stroke="#B1B1B1" stroke-width="3" stroke-miterlimit="10"/>
<path d="M859.76 471.656C859.76 471.656 861.425 480.827 875.991 483.12" stroke="#B1B1B1" stroke-width="3" stroke-miterlimit="10"/>
<path d="M870.664 551.907C870.664 551.907 876.616 550.115 891.182 550.24C905.749 550.365 914.614 556.618 914.614 556.618" stroke="#B1B1B1" stroke-width="3" stroke-miterlimit="10"/>
<path d="M817.391 537.232L827.255 533.772C827.255 533.772 831.417 531.813 832.124 537.524L835.87 552.032C835.87 552.032 835.787 555.867 831.792 558.202C828.171 560.286 825.216 561.537 825.216 561.537C821.969 563.288 803.074 549.364 817.391 537.232Z" stroke="#B1B1B1" stroke-width="3" stroke-miterlimit="10"/>
<path d="M890.933 555.409C890.933 555.409 892.764 551.824 895.469 551.824C898.175 551.824 901.879 552.616 901.879 552.616H903.543C903.543 552.616 905.916 554.867 906.249 555.701C906.582 556.535 908.08 557.91 908.08 557.91L909.162 558.619L910.161 559.453" stroke="#B1B1B1" stroke-width="3" stroke-miterlimit="10"/>
<path d="M851.644 520.223C851.644 520.223 863.298 532.605 862.881 545.112" stroke="#B1B1B1" stroke-width="3" stroke-miterlimit="10" stroke-linecap="round"/>
<path d="M843.736 524.934C843.736 524.934 842.363 547.863 851.644 548.822" stroke="#B1B1B1" stroke-width="3" stroke-miterlimit="10" stroke-linecap="round"/>
</g>
</g>
<defs>
<clipPath id="clip0">
<rect width="1132" height="770" fill="white"/>
</clipPath>
<clipPath id="clip1">
<rect width="799.094" height="450.242" fill="white" transform="translate(500.04 338.214)"/>
</clipPath>
</defs>
</svg>
