<svg id="Layer_1" data-name="Layer 1" xmlns="http://www.w3.org/2000/svg" viewBox="0 0 1441 900"><title>home</title><rect y="137" width="1440" height="763" style="fill:#30363d"/><path d="M1,0V451S783,718,1441,275V0Z" style="fill:#0046a2"/><path d="M650,552a21.5,21.5,0,1,1-21.67,21.52A21.5,21.5,0,0,1,650,552Zm-7.58,14.29a11.74,11.74,0,0,0-3.35-.59c-.36,0-.8,1.51-.82,2.33-.09,3.82,0,7.65-.06,11.48,0,1.58.58,2.06,2.09,2s2.23-.3,2.16-2c-.1-2.36-.06-4.73,0-7.09s1.21-3.72,2.82-3.75,2.52,1.23,2.57,3.62.07,5,0,7.51c0,1.51.81,1.68,2,1.65s2.24,0,2.18-1.7c-.07-2.29,0-4.59,0-6.89,0-2.67,1-4.14,2.75-4.21s2.65,1.36,2.69,4.2q.05,3.55,0,7.1c0,1.23.69,1.59,1.74,1.47s2.4.46,2.4-1.18a88.8,88.8,0,0,0-.42-11,4.73,4.73,0,0,0-6-4,20.27,20.27,0,0,0-4.08,2C647.82,564.49,646,564.39,642.4,566.29Z" style="fill:#bfbfbf"/><path d="M761.35,593.3c1.23-2.93,2.26-5.42,3.31-7.9,3.91-9.29,7.88-18.55,11.71-27.87,1.13-2.76,2.92-4.07,5.9-3.9a31.34,31.34,0,0,0,5,0c2-.21,2.78.51,3.17,2.49,2,10.43,4.24,20.84,6.39,31.25.39,1.88.75,3.76,1.19,5.95-3,0-5.71.1-8.39-.09-.5,0-1.14-1.22-1.33-2-.94-3.81-.9-3.83-4.73-3.86-2.5,0-5,.06-7.51,0a2.28,2.28,0,0,0-2.6,1.76c-1.54,4.23-1.6,4.21-6,4.21Zm24.51-14.08-2.9-14h-.7l-5.12,14Z" style="fill:#bfbfbf"/><path d="M670.93,553.5c.66-.06,1.31-.16,2-.16,4.8,0,9.59.06,14.39.09,3.77,0,5.28,1.31,6,5q1.79,9.74,3.64,19.47c.1.52.27,1,.53,2.05a18.56,18.56,0,0,0,.94-1.7c3.07-7.68,6.14-15.36,9.15-23.07a2.2,2.2,0,0,1,2.44-1.69c2.84.1,5.68,0,8.9,0-.39,1-.65,1.78-1,2.51-4.93,11.73-9.89,23.44-14.77,35.19-.63,1.52-1.42,2.16-3.09,2a43.64,43.64,0,0,0-6.46,0c-1.79.15-2.39-.62-2.79-2.22-2.43-9.71-5-19.39-7.4-29.11a6.09,6.09,0,0,0-4.1-4.81c-2.23-.76-4.48-1.49-6.72-2.25-.6-.2-1.18-.44-1.77-.66Z" style="fill:#bfbfbf"/><path d="M734.13,583.89c3.5.66,6.66,1.48,9.87,1.76a10.5,10.5,0,0,0,5.18-1.11c2.34-1.13,2.53-3.63.52-5.28a37.53,37.53,0,0,0-4.41-2.75,45.06,45.06,0,0,1-4.25-2.62c-5.5-4.26-5.89-11.26-.86-16.12,4.56-4.41,10.29-5.23,16.29-4.76a27,27,0,0,1,5.69,1.21,2.11,2.11,0,0,1,1.09,1.72c-.32,2.19-.9,4.34-1.44,6.75a17.52,17.52,0,0,0-3.25-.91,46.35,46.35,0,0,0-8.23-.23c-1.05.11-2.36,1.48-2.84,2.59-.64,1.48.64,2.58,1.88,3.32,2.21,1.32,4.47,2.55,6.68,3.86,9.07,5.4,5.82,16-.12,19.47-7.23,4.21-14.79,3.6-22.41,1.39a1.84,1.84,0,0,1-.81-1.57C733.09,588.29,733.66,586,734.13,583.89Z" style="fill:#bfbfbf"/><path d="M715,593.24c.6-2.86,1.09-5.29,1.61-7.72,2.18-10,4.39-20.08,6.52-30.13.3-1.43.84-2,2.33-1.9,2.61.12,5.24,0,8.14,0-.88,4.23-1.67,8.16-2.52,12.07-1.87,8.62-3.8,17.22-5.61,25.85-.29,1.36-.82,1.86-2.19,1.82C720.68,593.18,718.05,593.24,715,593.24Z" style="fill:#bfbfbf"/><path d="M818.19,463.54h7.16c0,3.34,0,6.67,0,10a1.67,1.67,0,0,1-.78,1.12c-5.71,3.45-15.23.25-17.45-6.09-1.74-5-1.56-10,2.13-14.2,3.53-4.05,8.24-4.41,13.16-3.73a9.27,9.27,0,0,1,2,.76l-.1.7a14.08,14.08,0,0,1-2-.12c-9.83-2-16.52,5.1-14,14.83,1.53,5.92,9,9.55,14.47,7a2.71,2.71,0,0,0,1.12-2.13,53.38,53.38,0,0,0-.74-7c0-.17-1.4-.13-2.15-.18l-2.76-.19Z" style="fill:#fff"/><path d="M706.24,475.39a15.45,15.45,0,0,1-.32-2.2c0-6.63.06-13.25-.07-19.88,0-2.16.89-2.83,2.79-2.8,1.17,0,2.35,0,3.52,0,4.28.13,7,2.56,7.32,6.42a7.25,7.25,0,0,1-6.45,7.93,9.38,9.38,0,0,1-3,.17c-2.43-.43-2.86.77-2.71,2.82.13,1.84.06,3.69,0,5.53a15.19,15.19,0,0,1-.3,2Zm1.11-17.92h0a42.09,42.09,0,0,0,.05,4.51c.06.57.77,1.56,1.12,1.54,2.28-.17,4.72-.15,6.77-1,2.48-1,3.28-4.56,2.22-7.23s-4.8-4.25-8.66-3.36c-2.89.66-1,3.19-1.51,4.8A2.56,2.56,0,0,0,707.35,457.48Z" style="fill:#fff"/><path d="M845,466.53c0,5.55-3.39,9.31-8.35,9.37-4.66.06-8.12-3.93-8.09-9.31s3.66-9.27,8.54-9.18S845,461.13,845,466.53Zm-14.77-.2c-.13,4.49,2.71,8.17,6.39,8.26s6.8-3.52,6.9-7.88-2.68-7.83-6.36-8C833.23,458.52,830.36,461.67,830.23,466.33Z" style="fill:#fff"/><path d="M722.37,458.89a8.42,8.42,0,0,1,7.2-1,4.78,4.78,0,0,1,3.51,4.72c.22,4.1.23,8.2.3,12.3,0,.17-.3.35-.66.73l-1.19-1.87a27.85,27.85,0,0,1-4,1.94,5.06,5.06,0,0,1-3.86-9.33,17.84,17.84,0,0,1,6-1.58c2-.18,2.22-.93,1.78-2.57-.76-2.85-2.93-4-6.31-3.24-.85.2-1.69.47-2.53.71Zm9.31,8.74c-.15-.18-.85-1.61-1.41-1.56a16.55,16.55,0,0,0-6,1.43c-1.93,1-2.27,3-1.37,5s2.53,2.31,4.42,1.94C730.17,473.91,731.67,471.84,731.68,467.63Z" style="fill:#fff"/><path d="M585.37,473.29c.51.08,1,.13,1.52.25a26.52,26.52,0,0,0,2.67.67c3.89.49,6.57-.91,7.32-3.74.83-3.09-.73-5.5-4.5-7.09a25,25,0,0,1-4-2,5.67,5.67,0,0,1-2.58-6.11,5.44,5.44,0,0,1,4.59-4.74,22.81,22.81,0,0,1,5.68.09c.46,0,.87.75,1.3,1.15l-.38.52c-1-.25-2-.55-3.07-.74-3-.57-5.81.85-6.6,3.3s.39,4.57,3.25,6c1.42.73,2.92,1.28,4.3,2.07,3,1.71,4.18,4.3,3.57,7.37s-2.81,4.89-6.25,5.24c-2.5.26-4.94.11-7-1.49Z" style="fill:#fff"/><path d="M646.32,475.36a18.07,18.07,0,0,1-.3-2.22c0-2.85.07-5.7-.06-8.55-.18-3.9-2.05-6.06-5-6-3.2,0-5.59,2.71-5.63,6.42,0,2.85,0,5.7,0,8.55a5.82,5.82,0,0,1-.74,1.84c-.32-.56-.91-1.12-.91-1.69-.07-4.78-.05-9.56,0-14.33a12.25,12.25,0,0,1,.52-2.13l1.29,2.61c.24,0,.45,0,.54-.09,2.32-2.21,5-3.16,8-1.8s3.52,4.21,3.51,7.19c0,2.68,0,5.37,0,8a15.89,15.89,0,0,1-.34,2.21Z" style="fill:#fff"/><path d="M618.11,458.64a8.35,8.35,0,0,1,7.23-.88,4.87,4.87,0,0,1,3.34,4.87,95.89,95.89,0,0,1-.4,12.73l-1-1.63a28.93,28.93,0,0,1-5.29,1.86,4.35,4.35,0,0,1-5.19-3,4.9,4.9,0,0,1,2.05-6.14,20.42,20.42,0,0,1,6.41-1.84c1.85-.25,2.29-.89,1.84-2.59-.68-2.57-2.67-3.89-5.55-3.44-1.11.17-2.2.52-3.3.79Zm7,7.19c-4.52.11-7.16,2.06-7,5a3.62,3.62,0,0,0,4,3.57c3.28-.14,5.26-2.61,5.32-6.3C627.44,466.21,626.75,465.49,625.12,465.83Z" style="fill:#fff"/><path d="M736.16,482.89c.39-.41.76-.83,1.17-1.21a34.85,34.85,0,0,0,2.76-2.53A6,6,0,0,0,741.2,472c-2-4.47-3.66-9.13-5.46-13.71l.66-.48a7.52,7.52,0,0,1,1.36,1.66c1.52,3.64,2.95,7.31,4.42,11,.27.66.57,1.3,1,2.21,2.26-5.1,4.39-9.89,6.53-14.68a4.32,4.32,0,0,1,.64.16,5.56,5.56,0,0,1-.21,1.13c-2.31,5.76-4.55,11.55-7,17.25-1.29,3-3.1,5.72-6.38,6.93Z" style="fill:#fff"/><path d="M614.87,473.7a8.6,8.6,0,0,1-11.54-.66c-3.28-3.68-2.83-10.45.91-13.66,2.94-2.52,8.21-2.79,10.56.05-4-1-7.73-1.75-10.15,1.66a11.25,11.25,0,0,0-1.81,5.81,7.41,7.41,0,0,0,1.68,4.8,8.94,8.94,0,0,0,4.67,2.45C610.78,474.49,612.55,473.93,614.87,473.7Z" style="fill:#fff"/><text transform="translate(598 818.64)" style="font-size:15px;fill:#aaa;font-family:Raleway-Medium, Raleway"><tspan style="letter-spacing:-0.009993489583333333em">P</tspan><tspan x="9.19" y="0" style="letter-spacing:-0.01796875em">ow</tspan><tspan x="29.96" y="0">e</tspan><tspan x="38.82" y="0" style="letter-spacing:-0.011979166666666667em">r</tspan><tspan x="44.08" y="0">ed </tspan><tspan x="66.18" y="0" style="letter-spacing:-0.018001302083333334em">b</tspan><tspan x="75.25" y="0" style="letter-spacing:-0.026985677083333333em">y</tspan><tspan x="83.02" y="0"> </tspan><tspan x="86.82" y="0" style="letter-spacing:-0.00498046875em">E</tspan><tspan x="95.82" y="0" style="letter-spacing:0.00003255208333333333em">pic Lanka (</tspan><tspan x="171.07" y="0" style="letter-spacing:-0.011002604166666667em">P</tspan><tspan x="180.25" y="0">VT) </tspan><tspan x="207.7" y="0" style="letter-spacing:-0.108984375em">L</tspan><tspan x="214.83" y="0">TD</tspan></text><line x1="560" y1="799" x2="870" y2="799" style="fill:none;stroke:#aaa;stroke-miterlimit:10"/><path d="M674.39,459.85v13a1.06,1.06,0,0,0,1.73.82l8-6.51a1.06,1.06,0,0,0,0-1.64l-8-6.51A1.06,1.06,0,0,0,674.39,459.85Z" style="fill:#fff"/><path d="M776.48,459.85v13a1.06,1.06,0,0,0,1.73.82l8-6.51a1.06,1.06,0,0,0,0-1.64l-8-6.51A1.06,1.06,0,0,0,776.48,459.85Z" style="fill:#fff"/></svg>