<svg id="Layer_1" data-name="Layer 1" xmlns="http://www.w3.org/2000/svg" viewBox="0 0 158 158"><title>epiclogo</title><ellipse cx="114" cy="49.5" rx="14" ry="9.5" style="fill:#fff"/><rect width="158" height="158" style="fill:none"/><path d="M31.77,121.8c.75-.4,1.51-1.12,2.26-1.13,3.18,0,4.62-1.8,5.4-4.6,3.71-13.3,7.52-26.58,11.2-39.89,1.26-4.58,1.07-4.7-5.06-5.65,1.24-1,1.9-1.86,2.7-2,5-1,9.93-1.78,15-2.67l-1.51,5.51.56.65c2.2-1.33,4.46-2.58,6.58-4a14.52,14.52,0,0,1,13.65-1.71c4.08,1.41,6.06,4.06,6.09,8.4.06,8.59-3.55,15.57-10.11,20.82-4,3.17-8.44,5.69-12.77,8.37-3.34,2.07-7,1.95-10.5.55-2-.79-2.85-.2-3.29,1.78-.75,3.34-1.55,6.68-2.47,10-.77,2.77.14,4.15,3,4.49.74.09,1.41.78,2.11,1.19a6.69,6.69,0,0,1-2.28,1c-6.74.08-13.48,0-20.21,0ZM77.79,80c.26-3.29-.59-6-3.69-7.64-4.91-2.53-13.32,1.23-14.72,6.53q-1.79,6.77-3.64,13.53c-1.21,4.37.56,7.47,5.1,8.34,5.26,1,9.06-1.66,12-5.61C76.13,90.73,77.4,85.49,77.79,80Z" style="fill:#0074bc"/><path d="M117.22,58.48a20.45,20.45,0,0,1-8.94-.35,23.33,23.33,0,0,1-8-3.92c-8.91-6.73-9-18.73-.15-25.6A23.55,23.55,0,0,1,127.26,28c5.19,3.68,8.23,8.67,7.38,15.15-.95,7.19-5.61,11.66-12.19,14.08A30.43,30.43,0,0,1,117.22,58.48ZM121,46c-5-3-11.2-2.08-14.32.66a5,5,0,0,0-.21,7.69c3.87,3.91,12.59,3.86,16.29-.15,1.66-1.8,2.24-4.2.24-6.2-2.28,1.91-3.35,4.46-5.64,5.81-.88.52-3,0-3.83-.8-.68-.65,1.95-3.07,2.47-4C117,47.17,119.49,47.8,121,46Z" style="fill:#ed1c24"/><path d="M31.94,98.83c-1.71,1.36-3.22,3.17-5.16,4-6.17,2.64-12.58,3.59-19.13,1.27A9.51,9.51,0,0,1,.83,95c-.65-17.31,9-27.55,25.24-29.57,12.12-1.51,14.38,6.95,11.57,16.35A3.5,3.5,0,0,1,35,83.51c-6.3.53-12.61.94-18.93,1.21-4.57.19-5.16.68-4.94,5.28.33,6.92,5.47,11.06,12.59,9.93,2.53-.4,5-1.23,7.49-1.86ZM12.7,81.41c4.89,0,9.29,0,13.69,0a1.9,1.9,0,0,0,1.11-.46c1.79-1.53,2.24-8,.73-10-1.71-2.31-5.59-2.89-8.51-1.1C15.62,72.29,14,76.32,12.7,81.41Z" style="fill:#0074bc"/><path d="M158,66.55c-1.64,4.07-3,7.63-4.54,11.13-.26.59-1.19.89-1.81,1.33a5.81,5.81,0,0,1-.74-2.08c.3-4.49-1.17-6.29-5.63-6.48-3.86-.16-7.29,1-9.5,4.32a26.48,26.48,0,0,0-4.39,15.07c.11,7.18,5.15,11.08,12.39,10.11a16.92,16.92,0,0,1,5.07-.25c-1.24,1.23-2.26,3-3.76,3.58-6,2.41-12.11,3-18.24.47-4.07-1.66-6.32-4.7-6.24-9.17C120.81,84.34,124.15,75.85,134,71c5.27-2.6,10.1-6.49,16.48-5.83C152.87,65.42,155.25,66,158,66.55Z" style="fill:#0074bc"/><path d="M96,69.21l17.64-3.53c-.69,2.37-1.37,4.59-2,6.83-2.37,8.6-4.71,17.22-7.1,25.82-.7,2.52-.08,4,2.77,4.32.65.07,1.22.94,1.83,1.44-.72.4-1.43,1.15-2.15,1.16-6.12.07-12.25,0-18.38-.07-.5,0-1-.7-1.49-1.08.44-.48.93-1.4,1.3-1.36,5.46.69,6.26-3.38,7.28-7.09q2.69-9.75,5.15-19.57c1.09-4.3.91-4.46-3.47-5.13A6.51,6.51,0,0,1,96,70.43Z" style="fill:#0074bc"/><ellipse cx="118.12" cy="50.4" rx="5.58" ry="3.65" transform="translate(-4.48 88.62) rotate(-40.42)" style="fill:#ed1c24"/></svg>