<svg width="104" height="48" viewBox="0 0 104 48" fill="none" xmlns="http://www.w3.org/2000/svg">
<g clip-path="url(#clip0)">
<path d="M43.5769 35.749H38.7884L30.0292 18.5737L26.1509 10.9885L20.5445 0H25.3198L27.3381 3.95746L28.8815 6.97832L31.2164 11.5426L32.7598 14.5766L43.5769 35.749Z" fill="#DB7F05"/>
<path d="M42.7062 0L34.8309 11.5426L33.1028 14.0754L32.7598 14.5766L30.0292 18.5737L18.3019 35.749H9.2525L26.1508 10.9885L28.8815 6.99151V6.97832L30.9526 3.95746L33.6568 0H42.7062Z" fill="#1F304A"/>
<path d="M42.7062 0L34.8309 11.5426L30.0292 18.5737L26.1509 10.9885L33.67 0H42.7062Z" fill="#2F425E"/>
<path d="M3.30709 44.4291H1.16874L0.435291 46.2574H0.0289917L2.14491 41.0573H2.3784L4.45211 46.2574H4.03658L3.30709 44.4291ZM1.30197 44.1032H3.1844L2.4681 42.2366C2.40742 42.0902 2.33619 41.8857 2.25176 41.6272C2.18712 41.8541 2.11589 42.0585 2.03938 42.2432L1.30197 44.1032Z" fill="#1F304A"/>
<path d="M8.91746 46.2574V43.7589C8.91746 43.3711 8.83435 43.0901 8.66946 42.9134C8.50325 42.7379 8.24733 42.6495 7.89908 42.6495C7.43078 42.6495 7.08912 42.7669 6.87146 42.9991C6.6538 43.2326 6.54562 43.6099 6.54562 44.1309V46.2561H6.18945V42.4055H6.49154L6.56014 42.9318H6.58256C6.83716 42.5308 7.28963 42.3303 7.93865 42.3303C8.82644 42.3303 9.27099 42.7986 9.27099 43.7365V46.2548H8.91746V46.2574Z" fill="#1F304A"/>
<path d="M13.053 42.3316C13.3366 42.3316 13.5806 42.3817 13.7877 42.4833C13.9948 42.5849 14.1795 42.759 14.3418 43.0044H14.3642C14.3497 42.7062 14.3418 42.416 14.3418 42.1298V40.7447H14.6953V46.2574H14.4618L14.3721 45.6691H14.3431C14.0463 46.1083 13.6189 46.3286 13.0622 46.3286C12.5227 46.3286 12.1098 46.1624 11.8248 45.8326C11.5399 45.5015 11.3961 45.02 11.3961 44.3868C11.3961 43.7207 11.5373 43.2115 11.8209 42.8606C12.1019 42.507 12.5134 42.3316 13.053 42.3316ZM13.053 42.6495C12.6269 42.6495 12.305 42.7973 12.09 43.0928C11.875 43.3882 11.7681 43.817 11.7681 44.3789C11.7681 45.4699 12.1982 46.016 13.0596 46.016C13.5015 46.016 13.8247 45.8894 14.0318 45.6374C14.2376 45.3841 14.3405 44.9673 14.3405 44.3868V44.3262C14.3405 43.7312 14.2402 43.3038 14.0371 43.0413C13.8339 42.7814 13.5068 42.6495 13.053 42.6495Z" fill="#1F304A"/>
<path d="M18.6304 42.3316C18.7966 42.3316 18.9733 42.3488 19.1633 42.3804L19.0947 42.7181C18.9311 42.6772 18.7623 42.6574 18.5868 42.6574C18.2531 42.6574 17.98 42.7959 17.7663 43.0743C17.5526 43.3539 17.4458 43.7062 17.4458 44.1309V46.2561H17.0896V42.4055H17.3917L17.4273 43.0994H17.4524C17.6133 42.8157 17.7848 42.6165 17.9668 42.5018C18.1515 42.3883 18.3718 42.3316 18.6304 42.3316Z" fill="#1F304A"/>
<path d="M24.2776 44.3262C24.2776 44.9554 24.1233 45.4461 23.8133 45.7983C23.5033 46.1505 23.0759 46.3273 22.5324 46.3273C22.1894 46.3273 21.8873 46.2455 21.6261 46.082C21.3636 45.9197 21.1631 45.6849 21.0246 45.3815C20.8848 45.0768 20.8162 44.7245 20.8162 44.3248C20.8162 43.6956 20.9705 43.2062 21.2805 42.8566C21.5905 42.507 22.0153 42.3316 22.5548 42.3316C23.0917 42.3316 23.5138 42.5097 23.8199 42.8645C24.1246 43.2207 24.2776 43.7075 24.2776 44.3262ZM21.1895 44.3262C21.1895 44.8551 21.3082 45.268 21.5443 45.5635C21.7805 45.8603 22.1142 46.0081 22.5469 46.0081C22.9783 46.0081 23.3133 45.8603 23.5494 45.5635C23.7856 45.2667 23.9043 44.8551 23.9043 44.3262C23.9043 43.7959 23.7856 43.383 23.5468 43.0888C23.308 42.7959 22.973 42.6495 22.5403 42.6495C22.1076 42.6495 21.7752 42.7946 21.5417 43.0875C21.3069 43.379 21.1895 43.7932 21.1895 44.3262Z" fill="#1F304A"/>
<path d="M26.3949 41.3356C26.3949 41.1087 26.4701 40.9953 26.6218 40.9953C26.697 40.9953 26.755 41.0243 26.7972 41.0837C26.8394 41.143 26.8592 41.2262 26.8592 41.3343C26.8592 41.4412 26.8381 41.5256 26.7972 41.585C26.755 41.647 26.697 41.6773 26.6218 41.6773C26.4701 41.6799 26.3949 41.5652 26.3949 41.3356ZM26.8012 46.2574H26.445V42.4068H26.8012V46.2574Z" fill="#1F304A"/>
<path d="M30.6268 42.3316C30.9104 42.3316 31.1544 42.3817 31.3615 42.4833C31.5686 42.5849 31.7533 42.759 31.9156 43.0044H31.938C31.9235 42.7062 31.9156 42.416 31.9156 42.1298V40.7447H32.2691V46.2574H32.0356L31.9459 45.6691H31.9169C31.6201 46.1083 31.1927 46.3286 30.636 46.3286C30.0965 46.3286 29.6836 46.1624 29.3986 45.8326C29.1137 45.5015 28.9699 45.02 28.9699 44.3868C28.9699 43.7207 29.1111 43.2115 29.3947 42.8606C29.6757 42.507 30.0859 42.3316 30.6268 42.3316ZM30.6268 42.6495C30.2007 42.6495 29.8788 42.7973 29.6638 43.0928C29.4488 43.3882 29.3419 43.817 29.3419 44.3789C29.3419 45.4699 29.772 46.016 30.6334 46.016C31.0753 46.016 31.3985 45.8894 31.6056 45.6374C31.8114 45.3841 31.9143 44.9673 31.9143 44.3868V44.3262C31.9143 43.7312 31.814 43.3038 31.6109 43.0413C31.4077 42.7814 31.0806 42.6495 30.6268 42.6495Z" fill="#1F304A"/>
<path d="M40.6286 46.2574H37.7528V41.0771H40.6286V41.4108H38.1195V43.3698H40.4874V43.7022H38.1195V45.9237H40.6286V46.2574Z" fill="#1F304A"/>
<path d="M43.7747 44.2774L42.4107 42.4068H42.821L43.9871 44.028L45.1427 42.4068H45.5345L44.1916 44.2774L45.6321 46.2574H45.2179L43.9871 44.5385L42.7484 46.2574H42.3566L43.7747 44.2774Z" fill="#1F304A"/>
<path d="M49.2399 46.3286C48.6371 46.3286 48.1991 46.1057 47.9234 45.6625H47.8984L47.9089 45.9606C47.9182 46.1347 47.9234 46.326 47.9234 46.5344V48.0013H47.5673V42.4081H47.8693L47.9379 42.9569H47.9591C48.2282 42.5413 48.6582 42.3329 49.2479 42.3329C49.7755 42.3329 50.1792 42.5031 50.4562 42.8447C50.7332 43.1864 50.8717 43.6837 50.8717 44.3354C50.8717 44.9673 50.7266 45.4593 50.4351 45.8062C50.1423 46.1545 49.7452 46.3286 49.2399 46.3286ZM49.2334 46.016C49.6344 46.016 49.9444 45.8696 50.1647 45.5767C50.3837 45.2825 50.4931 44.8736 50.4931 44.3473C50.4931 43.2154 50.0776 42.6495 49.2479 42.6495C48.7914 42.6495 48.4577 42.7735 48.244 43.0202C48.0303 43.2669 47.9234 43.6679 47.9234 44.2259V44.3393C47.9234 44.9422 48.0263 45.3709 48.2308 45.6295C48.4366 45.888 48.7703 46.016 49.2334 46.016Z" fill="#1F304A"/>
<path d="M54.6168 46.3286C54.0483 46.3286 53.605 46.1558 53.2871 45.8102C52.9692 45.4659 52.8096 44.9831 52.8096 44.3618C52.8096 43.7471 52.9639 43.255 53.2713 42.8856C53.5786 42.5163 53.9915 42.3316 54.5126 42.3316C54.973 42.3316 55.3371 42.4899 55.6035 42.8052C55.8687 43.1218 56.0032 43.5518 56.0032 44.0953V44.3789H53.1855C53.1895 44.9079 53.3161 45.3116 53.5615 45.5912C53.8068 45.8696 54.1604 46.0081 54.6181 46.0081C54.8411 46.0081 55.0376 45.9922 55.2065 45.9632C55.3753 45.9329 55.589 45.8656 55.8489 45.7654V46.0833C55.6273 46.1769 55.4241 46.2416 55.2368 46.2759C55.0495 46.3102 54.8424 46.3286 54.6168 46.3286ZM54.5126 42.6442C54.1366 42.6442 53.8332 42.7669 53.605 43.0096C53.3768 43.255 53.2436 43.6072 53.2053 44.0676H55.6233C55.6233 43.6217 55.5257 43.2722 55.3292 43.0215C55.1326 42.7682 54.8609 42.6442 54.5126 42.6442Z" fill="#1F304A"/>
<path d="M59.7061 42.3316C59.8723 42.3316 60.0491 42.3488 60.2391 42.3804L60.1705 42.7181C60.0082 42.6772 59.8394 42.6574 59.6626 42.6574C59.3288 42.6574 59.0558 42.7959 58.8421 43.0743C58.6284 43.3539 58.5215 43.7062 58.5215 44.1309V46.2561H58.1653V42.4055H58.4674L58.5044 43.0994H58.5308C58.6904 42.8157 58.8619 42.6165 59.0439 42.5018C59.2273 42.3883 59.4476 42.3316 59.7061 42.3316Z" fill="#1F304A"/>
<path d="M62.0687 41.3356C62.0687 41.1087 62.1439 40.9953 62.2956 40.9953C62.3695 40.9953 62.4289 41.0243 62.4698 41.0837C62.512 41.143 62.5318 41.2262 62.5318 41.3343C62.5318 41.4412 62.5106 41.5256 62.4698 41.585C62.4275 41.647 62.3695 41.6773 62.2956 41.6773C62.1439 41.6799 62.0687 41.5652 62.0687 41.3356ZM62.4737 46.2574H62.1175V42.4068H62.4737V46.2574Z" fill="#1F304A"/>
<path d="M66.447 46.3286C65.8797 46.3286 65.4352 46.1558 65.1173 45.8102C64.7994 45.4659 64.6411 44.9831 64.6411 44.3618C64.6411 43.7471 64.7941 43.255 65.1014 42.8856C65.4088 42.5163 65.8217 42.3316 66.3428 42.3316C66.8031 42.3316 67.1672 42.4899 67.4324 42.8052C67.7002 43.1218 67.8334 43.5518 67.8334 44.0953V44.3789H65.0157C65.0196 44.9079 65.1463 45.3116 65.3903 45.5912C65.637 45.8696 65.9892 46.0081 66.447 46.0081C66.6712 46.0081 66.8665 45.9922 67.0366 45.9632C67.2055 45.9329 67.4205 45.8656 67.6791 45.7654V46.0833C67.4574 46.1769 67.2543 46.2416 67.067 46.2759C66.8783 46.3102 66.6725 46.3286 66.447 46.3286ZM66.3428 42.6442C65.9668 42.6442 65.6634 42.7669 65.4365 43.0096C65.2083 43.255 65.0764 43.6072 65.0368 44.0676H67.4561C67.4561 43.6217 67.3572 43.2722 67.1593 43.0215C66.9628 42.7682 66.691 42.6442 66.3428 42.6442Z" fill="#1F304A"/>
<path d="M72.7248 46.2574V43.7589C72.7248 43.3711 72.6417 43.0901 72.4768 42.9134C72.3119 42.7379 72.0547 42.6495 71.7064 42.6495C71.2381 42.6495 70.8965 42.7669 70.6788 42.9991C70.4612 43.2326 70.353 43.6099 70.353 44.1309V46.2561H69.9968V42.4055H70.3002L70.3688 42.9318H70.3899C70.6445 42.5308 71.097 42.3303 71.746 42.3303C72.6338 42.3303 73.0784 42.7986 73.0784 43.7365V46.2548H72.7248V46.2574Z" fill="#1F304A"/>
<path d="M76.9884 46.3286C76.429 46.3286 75.9924 46.1545 75.6745 45.8076C75.3579 45.4593 75.1996 44.9752 75.1996 44.3539C75.1996 43.7167 75.3645 43.2207 75.6929 42.8645C76.0214 42.5084 76.4726 42.3316 77.0438 42.3316C77.3815 42.3316 77.706 42.3896 78.016 42.5057L77.9184 42.8171C77.5807 42.7049 77.2865 42.6495 77.0358 42.6495C76.557 42.6495 76.1929 42.7946 75.9462 43.0875C75.6995 43.379 75.5755 43.7985 75.5755 44.3473C75.5755 44.867 75.6995 45.2733 75.9462 45.5675C76.1929 45.8617 76.5398 46.0081 76.9831 46.0081C77.3379 46.0081 77.669 45.9461 77.9724 45.8208V46.1466C77.7218 46.268 77.3933 46.3286 76.9884 46.3286Z" fill="#1F304A"/>
<path d="M81.5909 46.3286C81.0223 46.3286 80.5791 46.1558 80.2612 45.8102C79.9419 45.4659 79.7836 44.9831 79.7836 44.3618C79.7836 43.7471 79.9367 43.255 80.244 42.8856C80.5514 42.5163 80.9643 42.3316 81.4867 42.3316C81.947 42.3316 82.3098 42.4899 82.5763 42.8052C82.8427 43.1218 82.976 43.5518 82.976 44.0953V44.3789H80.1583C80.1635 44.9079 80.2889 45.3116 80.5342 45.5912C80.7796 45.8696 81.1331 46.0081 81.5909 46.0081C81.8138 46.0081 82.0104 45.9922 82.1805 45.9632C82.3494 45.9329 82.5631 45.8656 82.823 45.7654V46.0833C82.6013 46.1769 82.3982 46.2416 82.2109 46.2759C82.0235 46.3102 81.8164 46.3286 81.5909 46.3286ZM81.4867 42.6442C81.1107 42.6442 80.8073 42.7669 80.5804 43.0096C80.3509 43.255 80.2189 43.6072 80.1794 44.0676H82.5987C82.5987 43.6217 82.4998 43.2722 82.3032 43.0215C82.108 42.7682 81.8349 42.6442 81.4867 42.6442Z" fill="#1F304A"/>
<path d="M92.0399 46.2574H91.6678V43.7101H88.5955V46.2574H88.2288V41.0771H88.5955V43.3764H91.6678V41.0771H92.0399V46.2574Z" fill="#1F304A"/>
<path d="M94.8312 42.4068V44.9013C94.8312 45.2878 94.9143 45.5701 95.0805 45.7456C95.2441 45.9223 95.5013 46.0094 95.8509 46.0094C96.3166 46.0094 96.6569 45.8933 96.8785 45.6625C97.0975 45.4303 97.2057 45.0543 97.2057 44.5333V42.4081H97.5592V46.2587H97.2571L97.1925 45.7271H97.1701C96.9168 46.1294 96.4643 46.33 95.814 46.33C94.9249 46.33 94.479 45.8617 94.479 44.9237V42.4094H94.8312V42.4068Z" fill="#1F304A"/>
<path d="M101.606 42.3316C102.152 42.3316 102.567 42.5004 102.842 42.8395C103.121 43.1785 103.259 43.6745 103.259 44.3262C103.259 44.9659 103.114 45.4593 102.823 45.8076C102.531 46.1545 102.121 46.3286 101.593 46.3286C101.315 46.3286 101.064 46.2719 100.84 46.1585C100.617 46.045 100.442 45.8841 100.312 45.677H100.279L100.179 46.2574H99.9548V40.7447H100.311V42.1298C100.311 42.3369 100.306 42.5295 100.296 42.7049L100.285 43.0044H100.311C100.459 42.7735 100.638 42.6033 100.849 42.4939C101.058 42.3857 101.311 42.3316 101.606 42.3316ZM101.598 42.6495C101.138 42.6495 100.807 42.7801 100.61 43.04C100.41 43.2985 100.311 43.7273 100.311 44.3262V44.3868C100.311 44.9673 100.415 45.3841 100.624 45.6374C100.831 45.8894 101.154 46.016 101.593 46.016C102.019 46.016 102.341 45.8696 102.557 45.5741C102.774 45.2799 102.883 44.8617 102.883 44.3196C102.881 43.2062 102.453 42.6495 101.598 42.6495Z" fill="#1F304A"/>
<path d="M65.3257 21.6855C65.86 21.3492 66.4879 21.0919 67.2108 20.9138C67.9324 20.7358 68.6803 20.6474 69.452 20.6474C70.659 20.6474 71.6484 20.836 72.4201 21.2106C74.102 21.9824 74.9436 23.407 74.9436 25.4847V35.7543H73.6377V25.5441C73.6377 24.2579 73.2472 23.3173 72.465 22.7237C71.6827 22.1314 70.6881 21.8333 69.4824 21.8333C68.77 21.8333 68.0471 21.9269 67.315 22.1156C66.5829 22.3042 65.9193 22.5562 65.327 22.8728V35.7543H63.9907V13.2166H65.327V21.6855H65.3257Z" fill="#DB7F05"/>
<path d="M79.1267 30.7679C79.1267 32.1332 79.4934 33.1582 80.2256 33.8402C80.9577 34.5236 82.0064 34.8639 83.3717 34.8639C84.6381 34.8639 85.6473 34.5328 86.3992 33.8693C87.1511 33.207 87.5271 32.2216 87.5271 30.9157V20.8848H88.8634V35.7543H87.5574L87.6458 34.0038C87.1709 34.6568 86.5522 35.166 85.7911 35.5314C85.0299 35.8968 84.2226 36.0802 83.373 36.0802C79.653 36.0802 77.793 34.2597 77.793 30.6189V20.8835H79.128V30.7679H79.1267Z" fill="#DB7F05"/>
<path d="M93.6413 21.6565C94.1558 21.3399 94.7784 21.0919 95.5105 20.9138C96.2427 20.7358 96.9946 20.6474 97.7663 20.6474C98.9337 20.6474 99.9231 20.836 100.734 21.2106C102.416 21.9824 103.258 23.407 103.258 25.4847V31.0951C103.258 32.1042 103.049 32.9551 102.634 33.6476C102.218 34.3402 101.654 34.8652 100.943 35.22C100.31 35.5366 99.6711 35.7649 99.0274 35.9034C98.3836 36.0419 97.6964 36.1105 96.9656 36.1105C96.2334 36.1105 95.2243 36.0406 93.9381 35.9034L92.305 35.7556V13.2166H93.6413V21.6565ZM96.7875 34.8639C98.3507 34.8639 99.6026 34.571 100.542 33.988C101.481 33.4049 101.952 32.4498 101.952 31.1241V25.5731C101.952 24.2684 101.556 23.3173 100.765 22.7237C99.9732 22.1314 98.9733 21.8333 97.7676 21.8333C97.0553 21.8333 96.3231 21.9269 95.5712 22.1156C94.8193 22.3042 94.1756 22.5456 93.6426 22.8438V34.5671C94.7876 34.7649 95.8377 34.8639 96.7875 34.8639Z" fill="#DB7F05"/>
<path d="M58.6403 35.7543C57.548 35.7543 56.6616 34.8692 56.6616 33.7756V33.7743C56.6616 32.682 57.5467 31.7955 58.6403 31.7955C59.7325 31.7955 60.619 32.6807 60.619 33.7743V33.7756C60.6177 34.8678 59.7325 35.7543 58.6403 35.7543Z" fill="#1F304A"/>
<path d="M36.1289 21.1249L32.4947 23.3609L30.049 18.5658L32.7796 14.5687L36.1289 21.1249Z" fill="url(#paint0_linear)" fill-opacity="0.15"/>
<path d="M7.38461 35.7543L0 35.7279V31.876L9.35411 31.8496C9.63773 31.8496 9.80526 32.1754 9.64564 32.4182L7.38461 35.7543Z" fill="#1F304A"/>
<path d="M11.5083 29.5701L0 29.5965V23.7856L14.7072 23.7606C15.1346 23.7606 15.3879 24.2526 15.1478 24.618L11.8895 29.3709C11.8025 29.4949 11.66 29.5701 11.5083 29.5701Z" fill="#2F425E"/>
<path d="M16.8323 21.4811H0.00128174V15.5027C0.00128174 14.7152 0.646347 14.0701 1.43388 14.0701H20.8927C21.4375 14.0701 21.7607 14.698 21.4547 15.1637L17.3191 21.2239C17.2083 21.3848 17.0263 21.4811 16.8323 21.4811Z" fill="#38506D"/>
<path d="M45.4553 35.7543H47.814V31.9037H44.0729C43.7892 31.9037 43.6217 32.2295 43.7813 32.4709L45.4553 35.7543Z" fill="#1F304A"/>
<path d="M42.3817 29.5965H50.3164C53.5259 29.5965 56.1273 26.9951 56.1273 23.7856H40.0363C39.6089 23.7856 39.3556 24.2777 39.5957 24.6431L42.0018 29.396C42.0862 29.5213 42.2287 29.5965 42.3817 29.5965Z" fill="#2F425E"/>
<path d="M38.3755 21.4771H56.3278C56.3278 17.3864 53.0115 14.0701 48.9208 14.0701H35.3177C34.7821 14.0701 34.4655 14.6875 34.765 15.1439L37.8979 21.2252C38.0061 21.3835 38.1842 21.4771 38.3755 21.4771Z" fill="#38506D"/>
</g>
<defs>
<linearGradient id="paint0_linear" x1="31.4414" y1="18.2718" x2="35.2839" y2="20.4977" gradientUnits="userSpaceOnUse">
<stop/>
<stop offset="0.0074" stop-color="#0B0B0B"/>
<stop offset="1" stop-color="white" stop-opacity="0"/>
</linearGradient>
<clipPath id="clip0">
<rect width="103.258" height="48" fill="white"/>
</clipPath>
</defs>
</svg>
