<svg width="290" height="135" viewBox="0 0 290 135" fill="none" xmlns="http://www.w3.org/2000/svg">
<g clip-path="url(#clip0)">
<path d="M122.385 100.544H108.937L84.3368 52.2384L73.4445 30.9053L57.699 0H71.1105L76.7789 11.1303L81.1136 19.6265L87.6711 32.4635L92.0058 40.9968L122.385 100.544Z" fill="#DB7F05"/>
<path d="M119.94 0L97.8224 32.4635L92.9691 39.5869L92.0058 40.9968L84.3368 52.2384L51.4008 100.544H25.9856L73.4446 30.9053L81.1136 19.6636V19.6265L86.9302 11.1303L94.5251 0H119.94Z" fill="#1F304A"/>
<path d="M119.941 0L97.8227 32.4635L84.3371 52.2384L73.4448 30.9053L94.5624 0H119.941Z" fill="#2F425E"/>
<path d="M9.28807 124.957H3.28252L1.22263 130.099H0.081543L6.02411 115.474H6.67986L12.5039 130.099H11.3368L9.28807 124.957ZM3.65671 124.04H8.94352L6.93179 118.79C6.76137 118.379 6.56131 117.803 6.3242 117.076C6.14266 117.714 5.9426 118.289 5.72772 118.809L3.65671 124.04Z" fill="#1F304A"/>
<path d="M25.0447 130.099V123.072C25.0447 121.981 24.8113 121.191 24.3482 120.694C23.8813 120.2 23.1626 119.952 22.1845 119.952C20.8693 119.952 19.9098 120.282 19.2985 120.935C18.6872 121.591 18.3834 122.652 18.3834 124.118V130.095H17.3831V119.265H18.2315L18.4241 120.745H18.4871C19.2021 119.618 20.4729 119.054 22.2957 119.054C24.789 119.054 26.0376 120.371 26.0376 123.009V130.091H25.0447V130.099Z" fill="#1F304A"/>
<path d="M36.6594 119.058C37.4559 119.058 38.1413 119.198 38.723 119.484C39.3046 119.77 39.8233 120.26 40.279 120.95H40.342C40.3012 120.111 40.279 119.295 40.279 118.49V114.594H41.2719V130.099H40.6162L40.3642 128.444H40.2827C39.4491 129.68 38.2488 130.299 36.6853 130.299C35.17 130.299 34.0104 129.832 33.2102 128.904C32.4099 127.973 32.0061 126.619 32.0061 124.838C32.0061 122.964 32.4025 121.532 33.1991 120.545C33.9882 119.551 35.1441 119.058 36.6594 119.058ZM36.6594 119.952C35.4627 119.952 34.5587 120.367 33.9549 121.198C33.351 122.029 33.0509 123.235 33.0509 124.816C33.0509 127.884 34.2586 129.42 36.6779 129.42C37.919 129.42 38.8267 129.064 39.4084 128.355C39.9863 127.643 40.2753 126.47 40.2753 124.838V124.667C40.2753 122.994 39.9937 121.792 39.4232 121.054C38.8527 120.323 37.9339 119.952 36.6594 119.952Z" fill="#1F304A"/>
<path d="M52.3234 119.057C52.7902 119.057 53.2866 119.106 53.8201 119.195L53.6275 120.144C53.1681 120.029 52.6939 119.974 52.2011 119.974C51.2638 119.974 50.4969 120.363 49.8967 121.146C49.2965 121.933 48.9964 122.923 48.9964 124.118V130.095H47.9961V119.265H48.8445L48.9445 121.217H49.0149C49.4669 120.419 49.9486 119.859 50.4598 119.536C50.9785 119.217 51.5972 119.057 52.3234 119.057Z" fill="#1F304A"/>
<path d="M68.1837 124.667C68.1837 126.437 67.7502 127.817 66.8796 128.808C66.0089 129.798 64.8085 130.295 63.2822 130.295C62.3189 130.295 61.4705 130.065 60.7369 129.605C59.9997 129.149 59.4365 128.489 59.0475 127.635C58.6548 126.778 58.4622 125.788 58.4622 124.663C58.4622 122.894 58.8956 121.517 59.7663 120.534C60.6369 119.551 61.8299 119.057 63.3451 119.057C64.853 119.057 66.0386 119.558 66.8981 120.556C67.7539 121.558 68.1837 122.927 68.1837 124.667ZM59.5106 124.667C59.5106 126.155 59.8441 127.316 60.5072 128.147C61.1704 128.982 62.1077 129.398 63.3229 129.398C64.5344 129.398 65.4754 128.982 66.1386 128.147C66.8017 127.312 67.1352 126.155 67.1352 124.667C67.1352 123.176 66.8018 122.014 66.1312 121.187C65.4606 120.363 64.5196 119.952 63.3044 119.952C62.0892 119.952 61.1556 120.36 60.4998 121.183C59.8404 122.003 59.5106 123.168 59.5106 124.667Z" fill="#1F304A"/>
<path d="M74.1304 116.256C74.1304 115.618 74.3415 115.299 74.7676 115.299C74.9788 115.299 75.1418 115.381 75.2603 115.548C75.3789 115.715 75.4345 115.948 75.4345 116.253C75.4345 116.553 75.3752 116.791 75.2603 116.957C75.1418 117.132 74.9788 117.217 74.7676 117.217C74.3415 117.225 74.1304 116.902 74.1304 116.256ZM75.2714 130.099H74.2712V119.269H75.2714V130.099Z" fill="#1F304A"/>
<path d="M86.0153 119.058C86.8119 119.058 87.4973 119.198 88.0789 119.484C88.6606 119.77 89.1793 120.26 89.635 120.95H89.6979C89.6572 120.111 89.635 119.295 89.635 118.49V114.594H90.6279V130.099H89.9721L89.7202 128.444H89.6387C88.8051 129.68 87.6047 130.299 86.0413 130.299C84.526 130.299 83.3664 129.832 82.5661 128.904C81.7659 127.973 81.3621 126.619 81.3621 124.838C81.3621 122.964 81.7585 121.532 82.555 120.545C83.3441 119.551 84.4963 119.058 86.0153 119.058ZM86.0153 119.952C84.8187 119.952 83.9147 120.367 83.3108 121.198C82.7069 122.029 82.4068 123.235 82.4068 124.816C82.4068 127.884 83.6146 129.42 86.0339 129.42C87.275 129.42 88.1827 129.064 88.7643 128.355C89.3423 127.643 89.6313 126.47 89.6313 124.838V124.667C89.6313 122.994 89.3497 121.792 88.7791 121.054C88.2086 120.323 87.2898 119.952 86.0153 119.952Z" fill="#1F304A"/>
<path d="M114.106 130.099H106.029V115.529H114.106V116.468H107.059V121.977H113.709V122.912H107.059V129.16H114.106V130.099Z" fill="#1F304A"/>
<path d="M122.941 124.53L119.111 119.269H120.263L123.538 123.829L126.783 119.269H127.884L124.112 124.53L128.158 130.099H126.995L123.538 125.264L120.059 130.099H118.959L122.941 124.53Z" fill="#1F304A"/>
<path d="M138.291 130.299C136.597 130.299 135.367 129.672 134.593 128.426H134.523L134.552 129.264C134.578 129.754 134.593 130.292 134.593 130.878V135.004H133.593V119.273H134.441L134.634 120.816H134.693C135.449 119.647 136.657 119.061 138.313 119.061C139.795 119.061 140.928 119.54 141.706 120.501C142.484 121.462 142.873 122.86 142.873 124.693C142.873 126.47 142.466 127.854 141.647 128.83C140.825 129.809 139.709 130.299 138.291 130.299ZM138.272 129.42C139.398 129.42 140.269 129.008 140.888 128.184C141.503 127.357 141.81 126.207 141.81 124.727C141.81 121.543 140.643 119.952 138.313 119.952C137.031 119.952 136.094 120.3 135.493 120.994C134.893 121.688 134.593 122.816 134.593 124.385V124.704C134.593 126.4 134.882 127.606 135.456 128.333C136.034 129.06 136.972 129.42 138.272 129.42Z" fill="#1F304A"/>
<path d="M153.391 130.299C151.795 130.299 150.55 129.813 149.657 128.841C148.764 127.873 148.316 126.515 148.316 124.767C148.316 123.038 148.749 121.655 149.612 120.616C150.476 119.577 151.635 119.057 153.099 119.057C154.392 119.057 155.414 119.503 156.162 120.389C156.907 121.28 157.285 122.489 157.285 124.018V124.816H149.372C149.383 126.303 149.738 127.439 150.427 128.225C151.117 129.008 152.109 129.398 153.395 129.398C154.021 129.398 154.573 129.353 155.047 129.271C155.522 129.186 156.122 128.997 156.852 128.715V129.609C156.229 129.872 155.659 130.054 155.133 130.151C154.606 130.247 154.025 130.299 153.391 130.299ZM153.099 119.937C152.043 119.937 151.191 120.282 150.55 120.964C149.909 121.655 149.535 122.645 149.427 123.94H156.218C156.218 122.686 155.944 121.703 155.392 120.998C154.84 120.285 154.077 119.937 153.099 119.937Z" fill="#1F304A"/>
<path d="M167.685 119.057C168.152 119.057 168.648 119.106 169.182 119.195L168.989 120.144C168.534 120.029 168.059 119.974 167.563 119.974C166.626 119.974 165.859 120.363 165.258 121.146C164.658 121.933 164.358 122.923 164.358 124.118V130.095H163.358V119.265H164.206L164.31 121.217H164.384C164.832 120.419 165.314 119.859 165.825 119.536C166.34 119.217 166.959 119.057 167.685 119.057Z" fill="#1F304A"/>
<path d="M174.32 116.256C174.32 115.618 174.531 115.299 174.958 115.299C175.165 115.299 175.332 115.381 175.447 115.548C175.565 115.715 175.621 115.948 175.621 116.253C175.621 116.553 175.561 116.791 175.447 116.957C175.328 117.132 175.165 117.217 174.958 117.217C174.531 117.225 174.32 116.902 174.32 116.256ZM175.458 130.099H174.457V119.269H175.458V130.099Z" fill="#1F304A"/>
<path d="M186.617 130.299C185.023 130.299 183.775 129.813 182.882 128.841C181.989 127.873 181.545 126.515 181.545 124.767C181.545 123.038 181.974 121.655 182.838 120.616C183.701 119.577 184.86 119.057 186.324 119.057C187.617 119.057 188.639 119.503 189.384 120.389C190.136 121.28 190.51 122.489 190.51 124.018V124.816H182.597C182.608 126.303 182.964 127.439 183.649 128.225C184.342 129.008 185.331 129.398 186.617 129.398C187.246 129.398 187.795 129.353 188.273 129.271C188.747 129.186 189.351 128.997 190.077 128.715V129.609C189.454 129.872 188.884 130.054 188.358 130.151C187.828 130.247 187.25 130.299 186.617 130.299ZM186.324 119.937C185.268 119.937 184.416 120.282 183.779 120.964C183.138 121.655 182.767 122.645 182.656 123.94H189.451C189.451 122.686 189.173 121.703 188.617 120.998C188.065 120.285 187.302 119.937 186.324 119.937Z" fill="#1F304A"/>
<path d="M204.248 130.099V123.072C204.248 121.981 204.014 121.191 203.551 120.694C203.088 120.2 202.366 119.952 201.388 119.952C200.072 119.952 199.113 120.282 198.502 120.935C197.89 121.591 197.586 122.652 197.586 124.118V130.095H196.586V119.265H197.438L197.631 120.745H197.69C198.405 119.618 199.676 119.054 201.499 119.054C203.992 119.054 205.241 120.371 205.241 123.009V130.091H204.248V130.099Z" fill="#1F304A"/>
<path d="M216.222 130.299C214.651 130.299 213.425 129.809 212.532 128.834C211.643 127.854 211.198 126.492 211.198 124.745C211.198 122.953 211.661 121.558 212.584 120.556C213.506 119.555 214.773 119.057 216.378 119.057C217.326 119.057 218.237 119.221 219.108 119.547L218.834 120.423C217.885 120.107 217.059 119.952 216.355 119.952C215.01 119.952 213.988 120.36 213.295 121.183C212.602 122.003 212.254 123.183 212.254 124.726C212.254 126.188 212.602 127.331 213.295 128.158C213.988 128.986 214.962 129.398 216.207 129.398C217.204 129.398 218.134 129.223 218.986 128.871V129.787C218.282 130.128 217.359 130.299 216.222 130.299Z" fill="#1F304A"/>
<path d="M229.148 130.299C227.551 130.299 226.307 129.813 225.414 128.841C224.517 127.873 224.073 126.515 224.073 124.767C224.073 123.038 224.502 121.655 225.366 120.616C226.229 119.577 227.388 119.057 228.855 119.057C230.148 119.057 231.167 119.503 231.916 120.389C232.664 121.28 233.038 122.489 233.038 124.018V124.816H225.125C225.14 126.303 225.491 127.439 226.181 128.225C226.87 129.008 227.863 129.398 229.148 129.398C229.774 129.398 230.326 129.353 230.804 129.271C231.278 129.186 231.879 128.997 232.608 128.715V129.609C231.986 129.872 231.415 130.054 230.889 130.151C230.363 130.247 229.782 130.299 229.148 130.299ZM228.855 119.937C227.8 119.937 226.947 120.282 226.31 120.964C225.666 121.655 225.295 122.645 225.184 123.94H231.979C231.979 122.686 231.701 121.703 231.149 120.998C230.6 120.285 229.834 119.937 228.855 119.937Z" fill="#1F304A"/>
<path d="M258.494 130.099H257.45V122.935H248.821V130.099H247.791V115.529H248.821V121.996H257.45V115.529H258.494V130.099V130.099Z" fill="#1F304A"/>
<path d="M266.333 119.269V126.285C266.333 127.372 266.567 128.166 267.034 128.659C267.493 129.156 268.215 129.401 269.197 129.401C270.505 129.401 271.461 129.075 272.083 128.426C272.698 127.773 273.002 126.715 273.002 125.25V119.273H273.995V130.102H273.147L272.965 128.607H272.902C272.191 129.739 270.92 130.303 269.094 130.303C266.596 130.303 265.344 128.986 265.344 126.348V119.276H266.333V119.269Z" fill="#1F304A"/>
<path d="M285.361 119.058C286.895 119.058 288.058 119.532 288.833 120.486C289.615 121.439 290.004 122.834 290.004 124.667C290.004 126.467 289.596 127.854 288.777 128.834C287.958 129.809 286.806 130.299 285.324 130.299C284.543 130.299 283.839 130.14 283.209 129.821C282.583 129.501 282.09 129.049 281.727 128.466H281.634L281.353 130.099H280.723V114.594H281.723V118.49C281.723 119.072 281.708 119.614 281.682 120.107L281.649 120.95H281.723C282.138 120.3 282.642 119.822 283.235 119.514C283.82 119.21 284.531 119.058 285.361 119.058ZM285.339 119.952C284.046 119.952 283.116 120.319 282.564 121.05C282.001 121.777 281.723 122.983 281.723 124.667V124.838C281.723 126.47 282.016 127.643 282.601 128.355C283.183 129.064 284.091 129.42 285.324 129.42C286.521 129.42 287.425 129.008 288.033 128.177C288.64 127.35 288.948 126.174 288.948 124.649C288.94 121.517 287.74 119.952 285.339 119.952Z" fill="#1F304A"/>
<path d="M183.467 60.9905C184.968 60.0444 186.731 59.321 188.761 58.8201C190.788 58.3192 192.888 58.0707 195.056 58.0707C198.446 58.0707 201.224 58.6012 203.392 59.6549C208.115 61.8253 210.479 65.8322 210.479 71.6757V100.559H206.811V71.8426C206.811 68.2252 205.715 65.5799 203.518 63.9104C201.321 62.2445 198.527 61.4061 195.141 61.4061C193.14 61.4061 191.11 61.6695 189.054 62.2C186.998 62.7306 185.134 63.4392 183.471 64.3296V100.559H179.718V37.1716H183.471V60.9905H183.467Z" fill="#DB7F05"/>
<path d="M222.227 86.5346C222.227 90.3745 223.257 93.2573 225.313 95.1754C227.369 97.0973 230.315 98.0545 234.149 98.0545C237.706 98.0545 240.54 97.1232 242.652 95.2571C244.764 93.3946 245.819 90.6231 245.819 86.9501V58.7384H249.572V100.559H245.905L246.153 95.6355C244.819 97.472 243.082 98.9041 240.944 99.9318C238.806 100.96 236.539 101.475 234.153 101.475C223.705 101.475 218.481 96.3553 218.481 86.1153V58.7347H222.231V86.5346H222.227Z" fill="#DB7F05"/>
<path d="M262.991 60.9089C264.436 60.0185 266.185 59.321 268.241 58.8201C270.297 58.3192 272.409 58.0707 274.576 58.0707C277.855 58.0707 280.634 58.6012 282.912 59.6549C287.636 61.8253 290 65.8322 290 71.6757V87.4548C290 90.293 289.414 92.686 288.247 94.6339C287.08 96.5817 285.494 98.0583 283.498 99.0563C281.719 99.9467 279.926 100.589 278.118 100.978C276.31 101.368 274.38 101.561 272.327 101.561C270.271 101.561 267.437 101.364 263.825 100.978L259.238 100.563V37.1716H262.991V60.9089ZM271.827 98.0546C276.218 98.0546 279.733 97.2309 282.371 95.5911C285.009 93.9512 286.332 91.2651 286.332 87.5364V71.9242C286.332 68.2549 285.22 65.5799 282.997 63.9104C280.775 62.2445 277.966 61.4061 274.58 61.4061C272.579 61.4061 270.523 61.6695 268.411 62.2C266.3 62.7306 264.492 63.4095 262.995 64.248V97.2198C266.211 97.7763 269.16 98.0546 271.827 98.0546Z" fill="#DB7F05"/>
<path d="M164.692 100.559C161.624 100.559 159.134 98.0695 159.134 94.9938V94.9901C159.134 91.9181 161.62 89.4249 164.692 89.4249C167.759 89.4249 170.249 91.9144 170.249 94.9901V94.9938C170.245 98.0658 167.759 100.559 164.692 100.559Z" fill="#1F304A"/>
<path d="M101.468 59.4139L91.2616 65.7025L84.3928 52.2162L92.0619 40.9745L101.468 59.4139Z" fill="url(#paint0_linear)" fill-opacity="0.15"/>
<path d="M20.7397 100.559L0 100.485V89.6512L26.271 89.577C27.0676 89.577 27.5381 90.4934 27.0898 91.1761L20.7397 100.559Z" fill="#1F304A"/>
<path d="M32.321 83.166L0 83.2402V66.8972L41.3053 66.8267C42.5056 66.8267 43.2169 68.2106 42.5427 69.2383L33.3917 82.6058C33.1472 82.9546 32.7471 83.166 32.321 83.166Z" fill="#2F425E"/>
<path d="M47.2735 60.4155H0.00341797V43.6012C0.00341797 41.3863 1.81508 39.572 4.02687 39.572H58.677C60.2071 39.572 61.1147 41.338 60.2552 42.6477L48.6405 59.692C48.3293 60.1446 47.8181 60.4155 47.2735 60.4155Z" fill="#38506D"/>
<path d="M127.661 100.559H134.286V89.7291H123.779C122.982 89.7291 122.512 90.6455 122.96 91.3245L127.661 100.559Z" fill="#1F304A"/>
<path d="M119.03 83.2402H141.314C150.328 83.2402 157.634 75.9239 157.634 66.8972H112.442C111.242 66.8972 110.531 68.281 111.205 69.3087L117.963 82.6763C118.2 83.0288 118.6 83.2402 119.03 83.2402Z" fill="#2F425E"/>
<path d="M107.777 60.4043H158.196C158.196 48.8993 148.882 39.572 137.394 39.572H99.1894C97.6853 39.572 96.7961 41.3084 97.6371 42.5921L106.436 59.6957C106.74 60.1409 107.24 60.4043 107.777 60.4043Z" fill="#38506D"/>
</g>
<defs>
<linearGradient id="paint0_linear" x1="88.3037" y1="51.3896" x2="99.1028" y2="57.6364" gradientUnits="userSpaceOnUse">
<stop/>
<stop offset="0.0074" stop-color="#0B0B0B"/>
<stop offset="1" stop-color="white" stop-opacity="0"/>
</linearGradient>
<clipPath id="clip0">
<rect width="290" height="135" fill="white"/>
</clipPath>
</defs>
</svg>
