<svg id="Layer_1" data-name="Layer 1" xmlns="http://www.w3.org/2000/svg" viewBox="0 0 531 531"><title>mvisa</title><rect width="531" height="531" style="fill:#fff"/><path d="M359.43,277.17h-4.65v9.28l-4.63.25v4.45h4.39v4.68l-4.45.24v4.47H345.3v4.83l.08-.07h-4.54v9.45h9.23l-.08-.07v4.75l.07-.07H345.4V324h-9.3v-4.59h-9.54l.07.07v-4.65h9.18v-9.31h-4.43V310h-9.52l.07.08V295.93h-4.76l.08.07v-9.31h4.69v-4.82l-.07.07h23.29V277.3h-9.09V268h-4.72v9h-4.71v-4.39H322.1v-9.3h18.54v9.09h4.62v-4.57h9.39c0-1.73,0-3.18,0-4.64l-.07.08H364v4.44h-4.61v9.51Zm-32.62,9.48v13.83h13.64V286.65Z" transform="translate(-40)" style="fill:#000000"/><path d="M312.57,258.49V249h-4.77l.07.08v-4.84h4.53v-9.11h-4.63v4.5h-4.65l.07.07V235h-4.76l.08.07V230.4h13.87v-4.7h-9v-9.27h4.42v4.33h4.81v-9.21l-.07.07h9.43l-.07-.07v4.75l.08-.07H317.4V221h4.54l-.08-.07v4.63h4.57v14.2h-4.56q0-2.28,0-4.56H317.4v4.49H322V249h-4.59v4.7h13.86l-.08-.07v4.76H312.5Z" transform="translate(-40)" style="fill:#000000"/><path d="M293.81,295.92h-9.29v-9.25h-9.44v-4.81l-.08.07h4.54v-4.76H275l.07.07v-4.76l-.07.08h14v-9.26h9.33v4.42h-4.39v4.78H312.4v4.6h-9.29v9.51l.07-.07-4.74.09q0-2.28,0-4.56H294v4.49h4.55v4.63h-4.78V296Z" transform="translate(-40)" style="fill:#000000"/><path d="M247,239.57V207.08h32.54v32.49Zm4.62-4.71h23.2V211.79h-23.2Z" transform="translate(-40)" style="fill:#000000"/><path d="M331.46,207H364v32.49H331.46Zm4.68,4.7v23.11h23.13V211.71Z" transform="translate(-40)" style="fill:#000000"/><path d="M279.53,324H247V291.48h32.49Zm-27.76-27.9v23.11h23.11V296.08Z" transform="translate(-40)" style="fill:#000000"/><path d="M275.06,253.73h-9.44l.07.08v-4.54h-4.76v4.54l.07-.08h-4.65v4.58H247V244.6h23.19v4.53h4.84l-.07-.07v4.75Z" transform="translate(-40)" style="fill:#000000"/><path d="M275.07,281.87h-9.35v4.58h-9.24V282h4.34v-9.31h-4.38V268h9.08v4.59h4.85l-.07-.08v4.76h4.76l-.07-.07v4.76Z" transform="translate(-40)" style="fill:#000000"/><path d="M275.06,249.13v-4.64h14.07v-4.81l-.08.07h4.76V235l-.07.08h4.76l-.08-.07v4.76h4.76l-.07-.07v9.45l.07-.08h-4.76l.07.08v-4.54h-4.76v4.54l.07-.08H275Z" transform="translate(-40)" style="fill:#000000"/><path d="M345.3,305.37h14v-9.26h4.55v18.41h-4.37l-.21-4.36h-4.47v4.52H350l.08.07v-4.81h-4.69V305.3Z" transform="translate(-40)" style="fill:#000000"/><path d="M289.13,239.68h-4.56v-9.22l4.39-.24v-4.46h-4.4V221.1h13.78v4.44h-4.6c0,3.35,0,6.43,0,9.52l.07-.08h-4.76v4.76Z" transform="translate(-40)" style="fill:#000000"/><path d="M307.88,310.05v-4.63h-4.58V296h13.95l-.08-.07v4.83h-4.69v9.31l.07-.08h-4.75Z" transform="translate(-40)" style="fill:#000000"/><path d="M270.38,272.57V258.41H275l-.08-.07.27,4.74h9.05v4.67H275c0,1.77,0,3.29,0,4.81l.07-.08H270.3Z" transform="translate(-40)" style="fill:#000000"/><path d="M307.81,310v4.67H303.3v4.62h4.37v4.67h-9V310.06h9.21Z" transform="translate(-40)" style="fill:#000000"/><path d="M288.92,324h-4.38V300.76h4.38Z" transform="translate(-40)" style="fill:#000000"/><path d="M251.41,286.48H247V268h4.38Z" transform="translate(-40)" style="fill:#000000"/><path d="M312.5,258.42v9.23h-9.17v-9.16h9.25Z" transform="translate(-40)" style="fill:#000000"/><path d="M303.11,286.62h4.66V282h4.64v9h-9.22c0-1.49,0-3,0-4.54Z" transform="translate(-40)" style="fill:#000000"/><path d="M293.9,207h4.4v9.13h-4.4Z" transform="translate(-40)" style="fill:#000000"/><path d="M312.57,211.56h-9.23v-4.49h9.15q0,2.28,0,4.56Z" transform="translate(-40)" style="fill:#000000"/><path d="M354.86,258.58q-.1-2.37-.19-4.75l-.07.08H364v4.6h-9.19Z" transform="translate(-40)" style="fill:#000000"/><path d="M345.31,258.51l9.54.08-.08-.07q-.09,2.39-.18,4.78l.07-.08h-9.28v-4.78Z" transform="translate(-40)" style="fill:#000000"/><path d="M298.43,249v9.23h-4.62q0-4.6,0-9.23l-.07.08h4.76Z" transform="translate(-40)" style="fill:#000000"/><path d="M321.87,310v4.55h-9.31c0-1.51,0-3,0-4.55l-.07.08h9.45Z" transform="translate(-40)" style="fill:#000000"/><path d="M331.31,249h-4.54v-4.48h4.46v4.55Z" transform="translate(-40)" style="fill:#000000"/><path d="M336.11,249.21v-4.68h4.34v4.61H336Z" transform="translate(-40)" style="fill:#000000"/><path d="M350.06,249h-4.54v-4.48H350v4.55Z" transform="translate(-40)" style="fill:#000000"/><path d="M275,253.81h4.54v4.54h-4.63l.08.07q0-2.34.09-4.68Z" transform="translate(-40)" style="fill:#000000"/><path d="M265.62,253.74v4.55H261c0-1.51,0-3,0-4.55l-.07.08h4.76Z" transform="translate(-40)" style="fill:#000000"/><path d="M289,254v4.28h-4.47V254Z" transform="translate(-40)" style="fill:#000000"/><path d="M321.86,216.31h4.55v4.62h-4.55l.08.07v-4.76Z" transform="translate(-40)" style="fill:#000000"/><path d="M321.95,281.87H317.4v-4.49h4.47q0,2.29,0,4.56Z" transform="translate(-40)" style="fill:#000000"/><path d="M359.36,277.24h4.55v4.49h-4.47q0-2.29,0-4.56Z" transform="translate(-40)" style="fill:#000000"/><path d="M321.93,211.63v-4.55h4.49v4.47h-4.56Z" transform="translate(-40)" style="fill:#000000"/><path d="M331.23,249.12l4.87.09-.08-.07c0,1.43,0,2.86,0,4.52h-4.89l.08.07q0-2.34.09-4.68Z" transform="translate(-40)" style="fill:#000000"/><path d="M307.81,249v4.55h-4.62V249l-.07.08h4.76Z" transform="translate(-40)" style="fill:#000000"/><path d="M288.9,216.18h-4.35v-4.46h4.35Z" transform="translate(-40)" style="fill:#000000"/><path d="M293.73,296h4.55v4.49h-4.48q0-2.29,0-4.56Z" transform="translate(-40)" style="fill:#000000"/><path d="M345.39,258.43h-4.55v-4.49h4.47q0,2.29,0,4.56Z" transform="translate(-40)" style="fill:#000000"/><path d="M354.86,249.21v-4.68h4.34v4.61h-4.42Z" transform="translate(-40)" style="fill:#000000"/><path d="M350,249.12l4.87.09-.08-.07q-.09,2.39-.18,4.78l.07-.08h-4.61c0-1.76,0-3.28,0-4.79Z" transform="translate(-40)" style="fill:#000000"/><path d="M326.56,319.36v4.55h-4.49v-4.47h4.56Z" transform="translate(-40)" style="fill:#000000"/><path d="M350,319.43h4.55v4.49h-4.47q0-2.29,0-4.56Z" transform="translate(-40)" style="fill:#000000"/><path d="M359.45,323.93V319.6h4.46v4.33Z" transform="translate(-40)" style="fill:#000000"/><path d="M256.4,314.53h13.74V300.78H256.4Z" transform="translate(-40)" style="fill:#000000"/><path d="M331.4,295.82v-4.36h4.41v4.36Z" transform="translate(-40)" style="fill:#000000"/><path d="M256.43,216.4h13.72v13.76H256.43Z" transform="translate(-40)" style="fill:#000000"/><path d="M340.84,216.38h13.73v13.74H340.84Z" transform="translate(-40)" style="fill:#000000"/><path d="M256.4,314.53V300.78h13.74v13.75Z" transform="translate(-40)" style="fill:#000000"/></svg>